<svg width="2870" height="500" viewBox="0 0 2870 500" fill="none" xmlns="http://www.w3.org/2000/svg">
<g clip-path="url(#clip0_259_374)">
<path d="M697.94 386.646C664.54 356.783 647.84 312.642 647.84 254.338C647.84 196.034 664.87 151.894 698.96 122.031C733.01 92.167 779.59 77.207 838.65 77.207C863.19 77.207 884.86 78.971 903.72 82.611C922.58 86.195 940.63 92.281 957.86 100.927V195.522C931.06 182.155 900.64 175.443 866.59 175.443C836.6 175.443 814.45 181.415 800.18 193.361C785.86 205.306 778.73 225.613 778.73 254.338C778.73 282.097 785.75 302.176 799.86 314.576C813.91 327.033 836.17 333.233 866.65 333.233C898.91 333.233 929.55 325.327 958.62 309.571V408.545C926.36 423.847 886.15 431.469 838.01 431.469C777.97 431.469 731.33 416.509 697.94 386.646Z" fill="#141414"/>
<path d="M987.7 254.278C987.7 196.429 1003.37 152.46 1034.71 122.312C1066.05 92.1654 1113.28 77.1484 1176.45 77.1484C1240.06 77.1484 1287.61 92.2224 1319.22 122.312C1350.78 152.403 1366.56 196.429 1366.56 254.278C1366.56 372.366 1303.18 431.409 1176.45 431.409C1050.6 431.466 987.7 372.422 987.7 254.278ZM1221.79 314.573C1231.09 302.116 1235.74 282.037 1235.74 254.335C1235.74 227.089 1231.09 207.123 1221.79 194.439C1212.5 181.754 1197.37 175.44 1176.45 175.44C1156.03 175.44 1141.22 181.811 1132.14 194.439C1123.06 207.123 1118.53 227.089 1118.53 254.335C1118.53 282.094 1123.06 302.173 1132.14 314.573C1141.22 327.031 1155.97 333.231 1176.45 333.231C1197.37 333.231 1212.44 326.974 1221.79 314.573Z" fill="#141414"/>
<path d="M1396.38 84.3154H1516.29L1519.7 110.139C1532.88 100.583 1549.69 92.6774 1570.11 86.4764C1590.54 80.2764 1611.67 77.1484 1633.5 77.1484C1673.92 77.1484 1703.43 87.6714 1722.07 108.717C1740.71 129.764 1750.01 162.243 1750.01 206.27V424.299H1621.94V219.865C1621.94 204.564 1618.64 193.585 1612.05 186.873C1605.46 180.161 1594.43 176.862 1578.98 176.862C1569.47 176.862 1559.68 179.137 1549.69 183.688C1539.69 188.238 1531.31 194.097 1524.45 201.264V424.299H1396.38V84.3154Z" fill="#141414"/>
<path d="M1750.38 84.3164H1883.91L1945.24 283.688L2006.58 84.3164H2140.11L2012.68 424.3H1877.75L1750.38 84.3164Z" fill="#141414"/>
<path d="M2180.43 395.061C2141.95 364.686 2123.96 311.957 2123.96 255.018C2123.96 199.558 2138.28 153.882 2170.97 122.312C2203.66 90.7434 2253.49 77.1484 2316.39 77.1484C2374.26 77.1484 2419.76 91.2554 2453 119.468C2486.18 147.682 2502.82 186.191 2502.82 234.939V294.494H2259.27C2265.32 312.184 2272.99 324.983 2291.85 332.889C2310.71 340.796 2337.03 344.721 2370.7 344.721C2390.8 344.721 2411.33 343.071 2432.19 339.715C2439.54 338.521 2451.65 336.644 2458.02 335.222V417.871C2426.19 426.972 2383.77 431.523 2335.95 431.523C2271.59 431.466 2218.9 425.436 2180.43 395.061ZM2368.26 221.344C2368.26 204.507 2349.84 168.273 2312.82 168.273C2279.42 168.273 2257.38 203.938 2257.38 221.344H2368.26Z" fill="#141414"/>
<path d="M2603.38 251.435L2483.46 84.3164H2622.45L2867.73 424.3H2727.4L2672.87 348.249L2618.35 424.3H2478.65L2603.38 251.435Z" fill="#141414"/>
<path d="M2724.31 84.3164H2862.65L2756.47 233.176L2686.22 137.785L2724.31 84.3164Z" fill="#141414"/>
<path d="M372.808 396.512C446.52 388.377 516.012 349.348 554.27 284.206C536.156 445.326 358.853 547.166 214.13 484.639C200.795 478.893 189.316 469.335 181.438 457.046C148.915 406.298 138.224 341.725 153.585 283.125C197.475 358.394 286.717 404.534 372.808 396.512Z" fill="#F3B01C"/>
<path d="M150.895 235.853C121.016 304.466 119.722 384.798 156.353 450.907C27.4419 354.531 28.8479 148.295 154.778 52.8861C166.425 44.0681 180.267 38.8341 194.785 38.0371C254.486 34.9081 315.144 57.8361 357.683 100.562C271.254 101.416 187.076 156.431 150.895 235.853Z" fill="#8D2676"/>
<path d="M399.366 121.67C355.757 61.2497 287.503 20.1157 212.722 18.8647C357.277 -46.3343 535.086 59.3717 554.44 215.656C556.24 230.164 553.88 244.956 547.409 258.041C520.4 312.544 470.32 354.816 411.801 370.461C454.678 291.437 449.388 194.89 399.366 121.67Z" fill="#EE342F"/>
</g>
<defs>
<clipPath id="clip0_259_374">
<rect width="2870" height="500" fill="white"/>
</clipPath>
</defs>
</svg>
