<svg width="1712" height="500" viewBox="0 0 1712 500" fill="none" xmlns="http://www.w3.org/2000/svg">
<path d="M423.62 19.8398V375.28L469.26 375.46V206.28H579.54V161.5H469.26V64.6198H612.82V19.8398H423.6H423.62ZM695.24 91.9798C711.8 91.9798 725.04 78.5598 725.04 62.1798C725.04 45.7998 711.62 32.3798 695.24 32.3798C678.86 32.3798 665.44 45.7998 665.44 62.1798C665.44 78.5598 678.86 91.9798 695.24 91.9798ZM672.08 136.76V375.28H717.72V136.76H672.08Z" fill="black"/>
<path fill-rule="evenodd" clip-rule="evenodd" d="M887.26 129.781C826.46 129.781 784.12 181.181 784.12 242.161C784.12 303.141 826.46 354.541 887.26 354.541C915.14 354.541 937.96 343.741 954.68 326.321V357.861C954.68 397.421 923.66 430.341 883.08 430.341C868.44 430.341 853.98 424.761 842.48 416.741L819.48 456.461C837.78 468.301 859.56 475.101 882.9 475.101C947.72 475.101 1000.16 422.661 1000.16 357.841V136.741H954.68V158.001C937.96 140.581 915.12 129.781 887.26 129.781ZM829.92 242.161C829.92 204.361 858.84 174.561 892.3 174.561C925.76 174.561 954.68 204.361 954.68 242.161C954.68 279.961 925.76 309.761 892.3 309.761C858.84 309.761 829.92 279.961 829.92 242.161Z" fill="black"/>
<path d="M1165.16 174.561C1138.16 174.561 1116.2 197.561 1116.2 224.561V375.281H1070.56V136.761H1116.2V158.541C1129.62 141.301 1149.3 129.801 1175.1 129.801C1207.16 129.801 1231.72 145.661 1246.02 170.041C1261.88 146.521 1287.66 129.801 1318.84 129.801C1370.94 129.801 1403.34 171.781 1403.52 223.721V375.301H1357.88V224.421C1357.88 197.421 1335.92 174.421 1308.92 174.421C1281.92 174.421 1259.96 197.421 1259.96 224.421V375.301H1214.32V224.421C1214.14 197.421 1192.2 174.581 1165.18 174.581L1165.16 174.561Z" fill="black"/>
<path fill-rule="evenodd" clip-rule="evenodd" d="M1647.08 163.761C1626.7 142.681 1598.82 129.781 1566.58 129.781C1498.62 129.781 1450.2 187.461 1450.2 256.101C1450.2 324.741 1498.46 382.421 1566.58 382.421C1598.82 382.421 1626.68 369.361 1647.08 348.441V375.281H1692.72V136.761H1647.08V163.761ZM1496.02 256.101C1496.02 210.621 1530.86 174.561 1571.64 174.561C1612.42 174.561 1647.26 210.461 1647.26 256.101C1647.26 301.741 1612.42 337.641 1571.64 337.641C1530.86 337.461 1496.02 301.581 1496.02 256.101Z" fill="black"/>
<path d="M172.56 250.18C172.56 207.84 206.88 173.34 249.4 173.34C291.92 173.34 326.24 207.66 326.24 250.18C326.24 292.7 291.92 327.02 249.4 327.02C206.88 327.02 172.56 292.52 172.56 250.18Z" fill="#1ABCFE"/>
<path d="M19.0596 403.68C19.0596 361.34 53.3796 326.84 95.8996 326.84H172.74V403.68C172.74 446.02 138.42 480.52 95.8996 480.52C53.3796 480.52 19.0596 446.2 19.0596 403.68Z" fill="#0ACF83"/>
<path d="M172.56 19.8402V173.34H249.4C291.74 173.34 326.24 139.02 326.24 96.5002C326.24 53.9802 291.92 19.6602 249.4 19.6602H172.56V19.8402Z" fill="#FF7262"/>
<path d="M19.0596 96.6798C19.0596 139.02 53.3796 173.52 95.8996 173.52H172.74V19.8398H95.8996C53.3796 19.8398 19.0596 54.1598 19.0596 96.6798Z" fill="#F24E1E"/>
<path d="M19.0596 250.18C19.0596 292.52 53.3796 327.02 95.8996 327.02H172.74V173.34H95.8996C53.3796 173.34 19.0596 207.84 19.0596 250.18Z" fill="#A259FF"/>
</svg>
