<svg width="1831" height="500" viewBox="0 0 1831 500" fill="none" xmlns="http://www.w3.org/2000/svg">
<g clip-path="url(#clip0_259_299)">
<path d="M0 164.151H164.151L332.075 332.075H164.151V500L0 332.075V164.151ZM0 0H332.075V164.151H164.151L0 0Z" fill="black"/>
<path d="M646.227 354.717V106.604H799.057V156.604H703.774V221.699H799.057V270.755H703.774V354.717H646.227Z" fill="black"/>
<path d="M833.019 354.717V183.019H890.566V221.698C891.51 209.434 897.17 199.057 905.661 190.566C914.151 183.019 925.472 179.245 936.793 179.245C944.34 179.245 948.114 183.019 951.887 183.019V233.019H936.793C923.585 231.132 910.378 237.736 901.887 248.113C894.34 255.66 890.566 270.755 890.566 289.623V354.717H833.019Z" fill="black"/>
<path d="M1058.49 316.981C1070.75 318.868 1083.02 312.264 1088.68 301.887C1096.23 293.396 1100 283.019 1100 271.698C1100 259.434 1096.23 247.17 1088.68 237.736C1081.13 229.245 1069.81 225.472 1058.49 226.415C1047.17 226.415 1035.85 230.189 1027.36 237.736C1019.81 247.17 1015.09 259.434 1016.04 271.698C1016.04 283.019 1019.81 294.34 1027.36 301.887C1034.91 311.321 1046.23 316.981 1058.49 316.981ZM1043.4 362.264C1019.81 362.264 998.113 352.83 982.075 335.849C968.868 316.981 962.264 294.34 963.207 270.755C963.207 255.66 966.038 239.623 970.755 225.472C977.358 211.321 988.679 200 1000.94 190.566C1013.21 183.019 1028.3 179.245 1043.4 179.245C1054.72 180.189 1066.98 182.076 1077.36 186.793C1086.79 191.51 1093.4 200 1096.23 209.434V182.076H1153.77V353.774H1096.23V331.132C1091.51 339.623 1084.91 347.17 1077.36 353.774C1066.98 359.434 1055.66 361.321 1043.4 362.264Z" fill="black"/>
<path d="M1196.23 354.717V183.019H1250V210.377C1253.77 199.056 1261.32 195.283 1268.87 187.736C1278.3 183.019 1288.68 181.132 1300 180.188C1326.42 180.188 1346.23 191.509 1353.77 211.321C1361.32 203.773 1368.87 196.226 1376.42 188.679C1387.74 183.962 1399.06 182.075 1411.32 181.132C1452.83 181.132 1472.64 203.773 1472.64 250V356.604H1418.87V259.434C1418.87 250 1416.04 240.566 1411.32 233.019C1405.66 228.302 1399.06 225.472 1391.51 225.472C1382.08 224.528 1373.59 229.245 1368.87 236.792C1363.21 246.226 1360.38 256.604 1361.32 266.981V354.717H1307.55V259.434C1307.55 250 1304.72 240.566 1300 233.019C1295.28 228.302 1287.74 225.472 1281.13 225.472C1272.64 226.415 1264.15 230.188 1258.49 236.792C1252.83 246.226 1250 256.604 1250.94 266.981V354.717H1196.23Z" fill="black"/>
<path d="M1555.66 251.887H1628.3C1628.3 242.453 1625.47 233.019 1620.75 225.472C1613.21 217.924 1605.66 217.924 1594.34 217.924C1583.96 217.924 1573.58 220.755 1564.15 225.472C1558.49 233.019 1555.66 242.453 1555.66 251.887ZM1681.13 259.434V285.849H1554.72C1554.72 296.226 1558.49 305.66 1566.04 312.264C1573.58 317.924 1583.02 320.755 1592.45 319.811C1611.32 319.811 1618.87 316.038 1626.41 304.717H1680.19C1676.41 322.641 1665.09 337.736 1650 346.226C1632.08 355.66 1612.26 361.321 1592.45 361.321C1562.26 361.321 1538.68 353.774 1523.58 334.906C1506.6 317.924 1496.23 294.34 1496.23 269.811C1496.23 244.34 1505.66 219.811 1523.58 200.943C1538.68 185.849 1561.32 178.302 1592.45 178.302C1616.04 177.358 1639.62 185.849 1657.55 200.943C1673.58 216.981 1682.08 237.736 1681.13 259.434Z" fill="black"/>
<path d="M1712.26 354.717V183.019H1766.04V221.698C1769.81 210.377 1776.42 200 1784.91 190.566C1793.4 183.019 1803.77 179.245 1815.09 179.245C1818.87 179.245 1826.42 183.019 1830.19 183.019V233.019H1811.32C1799.06 232.076 1787.74 238.679 1781.13 248.113C1769.81 255.66 1766.04 270.755 1766.04 289.623V354.717H1712.26Z" fill="black"/>
</g>
<defs>
<clipPath id="clip0_259_299">
<rect width="1830.19" height="500" fill="white"/>
</clipPath>
</defs>
</svg>
