<svg width="2494" height="500" viewBox="0 0 2494 500" fill="none" xmlns="http://www.w3.org/2000/svg">
<g clip-path="url(#clip0_259_235)">
<mask id="mask0_259_235" style="mask-type:luminance" maskUnits="userSpaceOnUse" x="0" y="0" width="2494" height="500">
<path d="M2493.67 0H0V500H2493.67V0Z" fill="white"/>
</mask>
<g mask="url(#mask0_259_235)">
<path d="M1657.71 0.208984H2092.07V80.3794H1919.77V502.145H1833.61V80.3794H1657.71V0.208984Z" fill="black"/>
<path d="M943.367 0.208984V80.3794H595.203V209.349H875.196V289.519H595.203V421.975H943.367V502.145H509.051V80.3794H509.015V0.208984H943.367Z" fill="black"/>
<path d="M1160.25 0.418945H1047.51L1451.34 502.355H1564.42L1362.48 251.56L1564.1 0.801894L1451.34 0.976135L1306.03 181.454L1160.25 0.418945Z" fill="black"/>
<path d="M1275.95 358.955L1219.49 288.753L1047.18 502.738H1160.25L1275.95 358.955Z" fill="black"/>
<path fill-rule="evenodd" clip-rule="evenodd" d="M512.07 502.146L107.691 0H0V501.936H86.1525V107.289L403.84 502.146H512.07Z" fill="black"/>
<path d="M2111.44 499.08C2105.13 499.08 2099.76 496.895 2095.27 492.523C2090.77 488.152 2088.55 482.859 2088.61 476.59C2088.55 470.492 2090.77 465.257 2095.27 460.886C2099.76 456.514 2105.13 454.328 2111.44 454.328C2117.51 454.328 2122.82 456.514 2127.31 460.886C2131.87 465.257 2134.14 470.492 2134.2 476.59C2134.14 480.731 2133.09 484.527 2130.99 487.921C2128.83 491.372 2126.09 494.076 2122.64 496.032C2119.25 498.045 2115.52 499.08 2111.44 499.08Z" fill="black"/>
<path d="M2258.48 287.629H2296.66V434.713C2296.6 448.231 2293.68 459.793 2287.96 469.514C2282.18 479.235 2274.18 486.655 2263.91 491.89C2253.7 497.066 2241.73 499.713 2228.13 499.713C2215.69 499.713 2204.54 497.469 2194.62 493.098C2184.7 488.726 2176.82 482.169 2171.04 473.54C2165.2 464.912 2162.33 454.156 2162.33 441.271H2200.58C2200.63 446.908 2201.92 451.797 2204.37 455.881C2206.82 459.965 2210.2 463.071 2214.52 465.257C2218.9 467.443 2223.92 468.536 2229.58 468.536C2235.71 468.536 2240.97 467.27 2245.23 464.681C2249.49 462.15 2252.76 458.354 2255.04 453.292C2257.25 448.288 2258.42 442.076 2258.48 434.713V287.629Z" fill="black"/>
<path d="M2453.74 345.151C2452.81 336.235 2448.72 329.275 2441.6 324.328C2434.42 319.324 2425.14 316.85 2413.75 316.85C2405.76 316.85 2398.87 318.059 2393.15 320.417C2387.43 322.833 2382.99 326.054 2379.96 330.138C2376.92 334.222 2375.41 338.881 2375.29 344.116C2375.29 348.488 2376.34 352.284 2378.38 355.448C2380.42 358.669 2383.17 361.373 2386.73 363.559C2390.23 365.802 2394.14 367.642 2398.41 369.138C2402.72 370.633 2407.04 371.899 2411.36 372.935L2431.27 377.824C2439.27 379.664 2447.03 382.138 2454.44 385.302C2461.85 388.408 2468.57 392.377 2474.46 397.151C2480.36 401.926 2485.03 407.678 2488.48 414.408C2491.92 421.138 2493.67 429.018 2493.67 438.107C2493.67 450.359 2490.52 461.116 2484.15 470.434C2477.79 479.695 2468.63 486.943 2456.6 492.178C2444.63 497.355 2430.16 500 2413.11 500C2396.65 500 2382.29 497.47 2370.21 492.408C2358.07 487.404 2348.61 480.04 2341.78 470.376C2334.95 460.713 2331.27 448.921 2330.75 435.058H2368.58C2369.1 442.305 2371.44 448.346 2375.41 453.235C2379.43 458.067 2384.68 461.633 2391.11 464.049C2397.59 466.407 2404.82 467.616 2412.82 467.616C2421.17 467.616 2428.53 466.35 2434.89 463.876C2441.19 461.403 2446.15 457.952 2449.72 453.466C2453.34 449.036 2455.15 443.802 2455.2 437.819C2455.15 432.355 2453.51 427.81 2450.35 424.243C2447.15 420.678 2442.71 417.687 2437.04 415.271C2431.33 412.855 2424.67 410.669 2417.08 408.771L2392.92 402.673C2375.46 398.244 2361.63 391.514 2351.53 382.483C2341.37 373.452 2336.35 361.488 2336.35 346.474C2336.35 334.165 2339.73 323.351 2346.57 314.09C2353.34 304.829 2362.62 297.638 2374.35 292.519C2386.15 287.342 2399.46 284.811 2414.28 284.811C2429.34 284.811 2442.53 287.342 2453.92 292.519C2465.3 297.638 2474.23 304.771 2480.71 313.859C2487.19 322.948 2490.58 333.359 2490.75 345.151H2453.74Z" fill="black"/>
</g>
</g>
<defs>
<clipPath id="clip0_259_235">
<rect width="2493.67" height="500" fill="white"/>
</clipPath>
</defs>
</svg>
