<svg width="1815" height="500" viewBox="0 0 1815 500" fill="none" xmlns="http://www.w3.org/2000/svg">
<path fill-rule="evenodd" clip-rule="evenodd" d="M999.697 100C999.697 155.229 954.927 200 899.698 200C853.105 200 813.951 168.131 802.85 125H663.233C638.79 125 617.931 142.671 613.913 166.78L609.804 191.44C605.899 214.854 594.055 235.231 577.308 250C594.055 264.769 605.899 285.146 609.804 308.561L613.913 333.221C617.931 357.33 638.79 375 663.233 375H702.85C713.95 331.87 753.105 300 799.698 300C854.927 300 899.698 344.771 899.698 400C899.698 455.229 854.927 500 799.698 500C753.105 500 713.95 468.13 702.85 425H663.233C614.35 425 572.63 389.658 564.593 341.439L560.482 316.779C556.466 292.67 535.607 275 511.164 275H470.379C457.895 316.002 419.781 345.834 374.698 345.834C329.616 345.834 291.502 316.002 279.018 275H220.379C207.895 316.002 169.781 345.834 124.698 345.834C69.4701 345.834 24.6987 301.061 24.6987 245.834C24.6987 190.605 69.4701 145.834 124.698 145.834C172.783 145.834 212.941 179.771 222.526 225H276.873C286.456 179.771 326.615 145.834 374.698 145.834C422.782 145.834 462.941 179.771 472.526 225H511.164C535.607 225 556.466 207.328 560.482 183.22L564.593 158.56C572.63 110.341 614.35 75 663.233 75H802.85C813.951 31.8694 853.105 0 899.698 0C954.927 0 999.697 44.7715 999.697 100ZM949.698 100C949.698 127.614 927.312 150 899.698 150C872.085 150 849.698 127.614 849.698 100C849.698 72.3858 872.085 50 899.698 50C927.312 50 949.698 72.3858 949.698 100ZM124.698 295.834C152.313 295.834 174.698 273.449 174.698 245.834C174.698 218.219 152.313 195.834 124.698 195.834C97.0843 195.834 74.6985 218.219 74.6985 245.834C74.6985 273.449 97.0843 295.834 124.698 295.834ZM374.698 295.834C402.312 295.834 424.698 273.449 424.698 245.834C424.698 218.219 402.312 195.834 374.698 195.834C347.085 195.834 324.698 218.219 324.698 245.834C324.698 273.449 347.085 295.834 374.698 295.834ZM799.698 450C827.312 450 849.698 427.615 849.698 400C849.698 372.385 827.312 350 799.698 350C772.085 350 749.698 372.385 749.698 400C749.698 427.615 772.085 450 799.698 450Z" fill="#EA4B71"/>
<path fill-rule="evenodd" clip-rule="evenodd" d="M1494.54 237.557V235.108C1512.49 226.134 1530.44 210.634 1530.44 180.043C1530.44 135.99 1494.13 109.477 1443.97 109.477C1392.57 109.477 1355.86 137.621 1355.86 180.858C1355.86 210.227 1372.99 226.134 1391.75 235.108V237.557C1370.96 244.897 1346.07 266.925 1346.07 303.634C1346.07 348.097 1382.78 379.097 1443.56 379.097C1504.33 379.097 1539.82 348.097 1539.82 303.634C1539.82 266.925 1515.34 245.306 1494.54 237.557ZM1443.56 147.003C1463.96 147.003 1479.04 160.055 1479.04 182.081C1479.04 204.108 1463.54 217.162 1443.56 217.162C1423.57 217.162 1406.84 204.108 1406.84 182.081C1406.84 159.648 1422.76 147.003 1443.56 147.003ZM1443.56 339.936C1419.89 339.936 1400.73 324.846 1400.73 299.148C1400.73 275.897 1416.63 258.357 1443.14 258.357C1469.25 258.357 1485.17 275.49 1485.17 299.964C1485.17 324.846 1466.81 339.936 1443.56 339.936ZM1099.73 375.008H1151.94V264.468C1151.94 228.166 1173.97 212.259 1198.85 212.259C1223.32 212.259 1242.5 228.573 1242.5 262.021V375.008H1294.7V251.417C1294.7 197.982 1263.7 166.982 1215.17 166.982C1184.57 166.982 1167.44 179.218 1155.2 195.126H1151.94L1147.46 171.061H1099.73V375.008ZM1645.07 375.008H1592.85V171.061H1640.58L1645.07 195.126H1648.33C1660.57 179.218 1677.7 166.982 1708.29 166.982C1756.83 166.982 1787.83 197.982 1787.83 251.417V375.008H1735.62V262.021C1735.62 228.573 1716.45 212.259 1691.98 212.259C1667.09 212.259 1645.07 228.166 1645.07 264.468V375.008Z" fill="white"/>
</svg>
