<svg width="1363" height="500" viewBox="0 0 1363 500" fill="none" xmlns="http://www.w3.org/2000/svg">
<g clip-path="url(#clip0_259_286)">
<mask id="mask0_259_286" style="mask-type:luminance" maskUnits="userSpaceOnUse" x="0" y="0" width="1363" height="500">
<path d="M1362.4 0H0.00146484V500H1362.4V0Z" fill="white"/>
</mask>
<g mask="url(#mask0_259_286)">
<path d="M521.254 2.72505C502.453 6.81224 491.009 10.627 476.976 17.7114C451.091 30.6542 432.017 48.2291 417.984 72.2073C403.952 95.913 397.548 121.935 398.502 150.681C399.728 183.651 409.674 212.671 429.837 241.008C441.145 257.085 446.595 263.215 476.84 294.278C499.456 317.575 511.036 334.741 515.123 350.681C517.167 358.72 516.077 376.158 513.08 383.106C506.813 397.684 488.284 403.406 474.66 394.959C467.031 390.191 462.943 380.245 462.398 364.033C461.99 354.36 461.172 350.273 459.537 348.502C457.494 346.186 453.815 346.049 404.769 346.049C359.946 346.186 351.772 346.458 349.456 348.229C346.867 350.136 346.731 351.771 346.867 373.025C347.003 397.548 349.183 410.082 356.676 429.156C370.028 463.352 399.864 487.057 441.009 496.322C459.401 500.409 505.45 500.681 523.161 496.73C549.592 491.008 574.933 478.611 592.099 462.807C613.488 443.461 628.883 413.352 634.333 380.654C637.467 361.172 636.24 329.7 631.745 311.989C625.886 289.918 617.167 271.526 603.679 253.406C593.734 239.918 592.644 238.692 568.802 214.714C557.494 203.406 546.186 191.417 543.597 188.284C541.009 185.014 537.194 180.382 535.15 178.066C533.107 175.613 528.883 168.801 525.886 162.807C516.486 144.278 515.804 126.022 524.115 114.033C529.701 105.995 535.559 103.134 547.548 102.589C559.674 101.908 564.851 103.951 571.118 111.853C575.069 116.758 576.159 120.981 578.475 140.6C578.883 144.142 580.246 148.365 581.745 150.136L584.197 153.27L635.287 153.679L686.377 154.087L690.191 150.818L694.006 147.412L693.734 131.335C692.371 68.3926 667.848 28.6106 618.802 9.67328C601.091 2.86129 589.646 1.09017 559.946 0.545211C537.739 0.136491 531.472 0.545211 521.254 2.72505Z" fill="#00E559"/>
<path d="M195.505 5.45008C179.973 8.31111 164.17 13.2157 151.227 19.2103C143.189 23.025 118.802 37.4664 117.167 39.51C116.758 39.9188 112.671 43.461 107.903 47.4119C98.6384 55.0414 89.3741 64.8506 77.6575 79.2921C65.6684 94.0059 64.7147 95.5046 55.5867 111.172C29.9736 155.178 13.3524 204.496 4.08807 263.624C-0.135361 291.145 -0.68032 350.682 3.13439 371.935C8.03902 398.229 17.3033 423.025 29.0199 440.872C37.8755 454.36 43.87 460.9 57.6303 472.344C71.3905 483.788 85.9681 491.417 103.543 496.186C114.034 499.047 117.848 499.319 146.458 499.319C174.115 499.319 179.565 498.911 192.78 496.186C233.788 487.466 262.807 469.483 290.6 435.832C295.096 430.518 309.265 409.129 309.265 407.902C309.265 407.357 311.036 404.088 313.08 400.682C319.347 390.464 330.927 363.08 338.012 342.099C341.554 331.336 344.96 322.071 345.641 321.39C346.322 320.709 353.134 320.028 360.9 319.891C374.251 319.483 375.205 319.21 377.521 316.077C378.884 314.169 381.063 308.039 382.29 302.453C383.516 296.867 385.287 288.556 386.377 284.06C391.418 262.262 395.914 241.826 397.276 235.423C397.957 232.698 397.276 230.927 394.687 228.338L391.145 224.796H303.27C240.873 224.796 214.442 225.205 211.99 226.295C210.219 227.248 208.039 229.428 207.221 231.472C205.859 235.014 198.23 266.894 194.142 286.104C192.916 291.69 191.009 299.864 189.919 304.224C188.829 308.584 188.284 313.352 188.693 314.851C190.191 319.483 197.412 321.526 212.943 321.526C220.709 321.526 227.385 321.935 227.93 322.344C229.02 323.57 224.933 336.24 220.573 344.96C212.399 361.172 202.862 372.616 191.418 380.109C169.755 394.278 146.186 394.415 132.835 380.654C120.164 367.575 115.396 349.592 115.396 314.033C115.396 274.524 121.799 240.6 136.922 200.954C153.815 156.404 173.979 126.159 192.916 117.303C213.352 107.63 230.927 111.853 239.238 128.338C243.052 135.832 246.458 151.772 246.595 162.126C246.595 165.532 247.548 169.755 248.775 171.39L250.818 174.387H305.859H360.9L363.761 170.709C366.486 167.167 366.622 165.941 365.805 151.227C362.671 95.2321 347.548 56.8125 318.666 30.9269C304.088 17.8479 278.747 6.81248 257.085 4.08768C240.328 2.04408 211.172 2.58904 195.505 5.45008Z" fill="#00E559"/>
<path d="M828.339 9.94563C824.524 11.853 822.48 15.804 807.494 49.0465C806.404 51.635 803.543 57.7658 801.363 62.6704C799.183 67.5751 795.913 74.5233 794.279 78.338C792.644 82.0165 789.51 88.8285 787.467 93.3244C785.423 97.8203 782.289 104.496 780.655 108.311C779.02 111.989 775.477 119.755 772.889 125.341C770.164 130.927 767.031 138.011 765.668 141.008C764.306 144.006 761.717 149.864 759.81 153.951C757.903 158.038 753.679 167.575 750.273 175.068C746.867 182.561 741.963 193.324 739.374 198.91C736.785 204.496 733.243 212.125 731.608 215.94C729.973 219.619 726.84 226.431 724.796 230.927C718.393 245.095 714.306 253.815 711.172 260.899C709.537 264.578 705.995 272.207 703.543 277.657C700.954 283.243 698.911 287.875 698.911 288.147C698.911 288.284 695.913 295.095 692.099 302.997C688.42 310.899 685.287 317.711 685.287 317.984C685.287 318.256 682.834 323.978 679.701 330.654C676.704 337.194 673.298 344.414 672.344 346.73C670.573 350.818 666.349 360.082 659.401 375.341C657.358 379.837 654.224 386.512 652.589 390.327C650.954 394.006 647.821 400.818 645.777 405.313C643.734 409.809 640.6 416.485 638.965 420.3C637.33 423.978 634.061 431.063 631.881 435.967C629.565 440.872 626.159 448.229 624.388 452.316C622.48 456.403 618.802 464.305 616.349 469.755C609.946 483.651 609.674 485.15 613.08 489.51L615.941 493.188H671.663H727.385L730.655 490.055C732.426 488.42 736.104 481.88 738.693 475.477C757.494 429.7 755.587 433.515 760.764 432.561C763.08 432.153 787.739 432.017 815.396 432.153L865.804 432.561L865.396 460.627C864.851 488.692 864.851 488.828 867.984 491.008C870.845 492.916 877.794 493.188 925.886 493.188H980.791L983.516 489.646L986.377 485.967V250V14.0328L983.516 11.4443C980.791 8.99195 977.249 8.85571 906.131 8.58323C848.638 8.31075 830.927 8.58323 828.339 9.94563ZM878.202 161.989C877.657 176.976 876.976 192.779 876.704 197.139C876.295 201.499 875.478 220.027 874.66 238.42C873.843 256.812 873.025 276.976 872.616 283.379C872.344 289.782 871.663 302.044 871.118 310.627C870.709 319.21 869.755 326.839 869.21 327.521C867.984 328.883 802.998 328.066 801.636 326.703C801.227 326.158 807.63 308.992 815.804 288.556C823.979 268.12 835.423 239.646 841.145 225.477C846.867 211.172 852.181 198.365 852.862 196.867C853.952 194.551 872.072 150.136 876.567 138.556C877.385 136.512 878.202 134.878 878.611 134.878C878.884 134.878 878.747 147.139 878.202 161.989Z" fill="#00E559"/>
<path d="M1110.08 10.2182C1106.13 12.3981 1106.13 12.5343 1102.86 26.567C1101.64 31.7441 1099.59 41.0084 1098.09 47.003C1096.73 52.9975 1093.05 68.9376 1089.92 82.4253C1082.97 113.079 1077.11 138.147 1072.89 156.676C1063.35 197.82 1043.19 285.559 1040.87 295.641C1035.56 318.801 1020.44 384.878 1017.71 395.777C1017.03 398.774 1015.12 407.085 1013.49 414.169C1008.99 433.924 1006 447.139 1001.36 467.166C999.047 477.112 997.548 486.376 997.957 487.739C999.592 492.78 1004.09 493.188 1056.27 493.188C1099.73 493.188 1107.49 492.916 1109.95 491.145C1112.94 489.101 1114.58 484.605 1117.03 472.616C1117.71 469.346 1119.76 459.673 1121.8 451.09C1126.02 432.834 1126.16 427.521 1123.03 424.932C1120.03 422.616 1111.17 417.711 1080.11 401.499C1077.25 400.137 1074.93 398.093 1074.93 397.003C1074.93 395.368 1080.65 395.096 1108.72 395.096C1168.53 395.096 1201.23 388.965 1239.1 370.572C1256.4 362.126 1262.81 358.175 1279.29 345.096C1294.14 333.379 1312.67 312.943 1324.12 295.641C1370.57 225.477 1375.75 115.259 1335.15 62.6706C1327.52 52.7251 1311.04 37.6024 1305.18 34.8776C1304.09 34.4689 1299.73 32.1528 1295.64 29.8368C1280.79 21.6624 1259.54 15.1229 1235.42 11.4444C1214.44 8.17463 1115.26 7.22096 1110.08 10.2182ZM1218.8 114.85C1228.07 117.303 1234.47 122.48 1238.83 131.063C1243.46 140.327 1245.23 149.864 1245.23 166.077C1245.23 204.496 1232.43 242.235 1212.13 263.76C1202.04 274.387 1192.78 280.518 1181.2 283.924C1174.52 285.968 1159.4 286.921 1159.4 285.423C1159.4 284.741 1170.98 234.06 1175.61 214.578C1187.88 163.216 1191.01 146.867 1189.24 145.096C1188.15 144.142 1182.7 140.872 1177.11 138.011C1138.97 117.848 1138.01 117.166 1139.51 114.578C1141.01 112.262 1209.95 112.534 1218.8 114.85Z" fill="#00E559"/>
</g>
</g>
<defs>
<clipPath id="clip0_259_286">
<rect width="1362.4" height="500" fill="white"/>
</clipPath>
</defs>
</svg>
