<svg width="1773" height="500" viewBox="0 0 1773 500" fill="none" xmlns="http://www.w3.org/2000/svg">
<path d="M145.204 67.3809C127.517 46.3945 112.279 25.068 109.184 20.6462C108.844 20.3061 108.368 20.3061 108.028 20.6462C104.932 25.068 89.6942 46.3945 72.0071 67.3809C-79.7956 261.02 95.9187 391.667 95.9187 391.667L97.3813 392.653C98.7078 412.823 101.973 441.837 101.973 441.837H108.538H115.102C115.102 441.837 118.368 412.993 119.694 392.653L121.157 391.497C121.293 391.667 297.007 261.02 145.204 67.3809ZM108.504 388.707C108.504 388.707 100.647 381.973 98.5037 378.537V378.197L107.994 167.347C107.994 166.701 108.98 166.701 108.98 167.347L118.47 378.197V378.537C116.361 382.007 108.504 388.707 108.504 388.707Z" fill="#01EC64"/>
<path d="M437.382 345.714L364.151 166.871L363.98 166.36H307.008V178.367H316.191C318.98 178.367 321.6 179.524 323.572 181.497C325.545 183.469 326.531 186.122 326.531 188.911L324.899 368.911C324.899 374.524 320.307 379.116 314.729 379.286L305.375 379.456V391.326H360.885V379.456L355.137 379.286C349.559 379.116 344.967 374.524 344.967 368.911V199.286L424.763 391.326C425.919 394.116 428.538 395.952 431.497 395.952C434.457 395.952 437.076 394.15 438.232 391.326L516.225 203.571L517.382 368.911C517.382 374.66 512.79 379.286 507.042 379.456H501.123V391.326H566.157V379.456H557.28C551.702 379.456 547.11 374.694 546.94 369.082L546.463 189.082C546.463 183.333 551.055 178.707 556.633 178.537L566.157 178.367V166.36H510.647L437.382 345.714ZM947.96 376.326C946.157 374.524 945.171 372.041 945.171 369.082V280.646C945.171 263.809 940.239 250.612 930.341 241.224C920.613 231.837 907.144 227.041 890.341 227.041C866.804 227.041 848.198 236.599 835.205 255.408C835.035 255.748 834.559 255.918 834.048 255.918C833.538 255.918 833.232 255.578 833.232 255.102L827.144 231.497H816.94L790.783 246.497V254.762H797.518C800.647 254.762 803.266 255.578 805.103 257.245C806.906 258.911 807.892 261.36 807.892 264.83V368.911C807.892 371.871 806.906 374.354 805.103 376.156C803.3 377.959 800.817 378.946 797.858 378.946H791.259V390.986H851.497V378.946H844.899C841.94 378.946 839.457 377.959 837.654 376.156C835.851 374.354 834.865 371.871 834.865 368.911V299.966C834.865 291.224 836.838 282.483 840.477 273.911C844.253 265.51 849.865 258.401 857.28 252.959C864.695 247.517 873.572 244.864 883.776 244.864C895.307 244.864 904.014 248.503 909.457 255.748C914.899 262.993 917.688 272.415 917.688 283.639V368.775C917.688 371.735 916.702 374.218 914.899 376.02C913.096 377.823 910.613 378.809 907.654 378.809H901.055V390.85H961.293V378.809H954.695C952.246 379.116 949.933 378.129 947.96 376.326ZM1498.44 179.83C1481.77 170.952 1463.16 166.36 1443.1 166.36H1364.73V178.333H1372.42C1375.34 178.333 1377.96 179.49 1380.58 182.109C1383.03 184.558 1384.32 187.381 1384.32 190.306V367.007C1384.32 369.966 1383.03 372.755 1380.58 375.204C1378.13 377.653 1375.34 378.98 1372.42 378.98H1364.73V390.952H1443.1C1463.16 390.952 1481.8 386.36 1498.44 377.483C1515.1 368.605 1528.64 355.476 1538.44 338.741C1548.23 322.007 1553.3 301.803 1553.3 278.809C1553.3 255.816 1548.23 235.782 1538.44 218.877C1528.47 201.837 1515.07 188.843 1498.44 179.83ZM1521.77 278.503C1521.77 299.524 1518.03 317.245 1510.68 331.531C1503.33 345.816 1493.54 356.497 1481.46 363.401C1469.39 370.306 1455.99 373.741 1441.63 373.741H1425.78C1422.86 373.741 1420.24 372.585 1417.62 369.966C1415.17 367.517 1413.88 364.728 1413.88 361.769V195.068C1413.88 192.109 1415.03 189.49 1417.62 186.871C1420.07 184.422 1422.86 183.095 1425.78 183.095H1441.63C1455.99 183.095 1469.39 186.531 1481.46 193.435C1493.54 200.34 1503.33 211.02 1510.68 225.306C1518.03 239.762 1521.77 257.653 1521.77 278.503ZM1738.54 290.51C1731.29 282.143 1717.31 275.068 1700.85 271.292C1723.57 259.966 1735.24 244.048 1735.24 223.503C1735.24 212.347 1732.28 202.313 1726.36 193.775C1720.44 185.238 1712.04 178.333 1701.36 173.571C1690.65 168.809 1678.13 166.36 1663.98 166.36H1575.27V178.333H1582.35C1585.31 178.333 1587.93 179.49 1590.58 182.109C1593.06 184.558 1594.35 187.381 1594.35 190.306V367.007C1594.35 369.966 1593.03 372.755 1590.58 375.204C1588.1 377.653 1585.31 378.98 1582.35 378.98H1574.63V390.952H1670.92C1685.58 390.952 1699.22 388.503 1711.57 383.571C1723.91 378.639 1733.78 371.428 1740.89 361.905C1748.13 352.381 1751.74 340.714 1751.74 327.245C1751.53 312.823 1747.25 300.51 1738.54 290.51ZM1628.1 370.136C1625.61 367.687 1624.32 364.898 1624.32 361.939V282.619H1670.07C1686.19 282.619 1698.54 286.735 1707.11 294.932C1715.68 303.129 1719.93 313.809 1719.93 326.973C1719.93 334.864 1717.96 342.585 1714.35 349.626C1710.58 356.837 1704.97 362.585 1697.38 367.041C1689.97 371.463 1680.75 373.775 1670.07 373.775H1636.33C1633.37 373.775 1630.72 372.619 1628.1 370.136ZM1624.46 265.714V195.272C1624.46 192.313 1625.61 189.694 1628.23 187.075C1630.72 184.626 1633.5 183.299 1636.46 183.299H1658.2C1673.81 183.299 1685.34 187.245 1692.59 194.796C1699.83 202.517 1703.44 212.381 1703.44 224.524C1703.44 237.007 1699.97 247.007 1693.23 254.592C1686.46 261.973 1676.26 265.748 1662.79 265.748H1624.46V265.714ZM718.606 237.517C706.021 230.646 691.974 227.041 676.804 227.041C662.008 227.041 648.164 230.306 635.987 236.973L635.001 237.517C622.416 244.388 612.45 254.388 605.103 266.973C597.756 279.592 593.98 294.32 593.98 310.68C593.98 327.041 597.722 341.769 605.103 354.388C612.45 367.007 622.416 376.973 635.001 383.843C647.586 390.714 661.633 394.32 676.804 394.32C691.599 394.32 705.443 391.054 717.62 384.388L718.606 383.843C731.191 376.973 741.157 366.973 748.504 354.388C755.851 341.803 759.627 327.041 759.627 310.68C759.627 294.32 755.885 279.592 748.504 266.973C741.157 254.354 731.191 244.388 718.606 237.517ZM730.681 310.646C730.681 330.782 725.783 347.143 715.987 358.911C706.361 370.68 693.13 376.735 676.804 376.735C660.749 376.735 647.722 370.884 638.13 359.524L637.62 358.911C627.824 347.143 622.926 330.748 622.926 310.646C622.926 290.884 627.654 274.762 637.11 263.027L637.654 262.381C647.28 250.612 660.511 244.558 676.838 244.558C693.164 244.558 706.395 250.612 716.021 262.381C725.783 274.15 730.681 290.51 730.681 310.646ZM1297.48 237.517C1284.9 230.646 1270.85 227.041 1255.68 227.041C1240.89 227.041 1227.04 230.306 1214.86 236.973L1213.88 237.517C1201.29 244.388 1191.33 254.388 1183.98 266.973C1176.63 279.592 1172.86 294.32 1172.86 310.68C1172.86 327.041 1176.6 341.769 1183.98 354.388C1191.33 367.007 1201.29 376.973 1213.88 383.843C1226.46 390.714 1240.51 394.32 1255.68 394.32C1270.48 394.32 1284.32 391.054 1296.5 384.388L1297.48 383.843C1310.07 376.973 1320.03 366.973 1327.38 354.388C1334.73 341.803 1338.5 327.041 1338.5 310.68C1338.5 294.32 1334.76 279.592 1327.38 266.973C1320 254.354 1309.86 244.388 1297.48 237.517ZM1309.56 310.646C1309.56 330.782 1304.66 347.143 1294.86 358.911C1285.24 370.68 1272.01 376.735 1255.68 376.735C1239.63 376.735 1226.6 370.884 1217.01 359.524L1216.5 358.911C1206.7 347.143 1201.8 330.748 1201.8 310.646C1201.8 290.714 1206.53 274.728 1215.99 263.027L1216.53 262.381C1226.16 250.612 1239.39 244.558 1255.72 244.558C1272.04 244.558 1285.27 250.612 1294.9 262.381C1304.49 274.15 1309.56 290.51 1309.56 310.646ZM1064.01 227.041C1050.85 227.041 1038.84 229.83 1027.99 235.442C1017.14 241.054 1008.57 248.605 1002.48 258.299C996.395 267.823 993.266 278.537 993.266 289.864C993.266 300.068 995.579 309.422 1000.34 317.823C1004.93 325.884 1011.19 332.619 1019.08 338.197L995.545 370.102C992.586 374.048 992.246 379.32 994.389 383.571C996.702 388.027 1000.95 390.646 1005.92 390.646H1012.65C1006.36 394.898 1001.26 399.898 997.654 405.816L997.178 406.599C992.892 413.673 990.749 421.054 990.749 428.639C990.749 442.517 996.77 454.048 1008.67 462.687L1009.32 463.163C1021.5 471.871 1038.61 476.326 1060.14 476.326C1075.1 476.326 1089.42 473.843 1102.42 469.082C1115.2 464.456 1125.65 457.653 1133.47 448.809L1134.15 448.027C1142.21 438.809 1146.33 427.653 1146.33 414.83C1146.33 401.36 1141.4 391.803 1129.86 382.619C1120 374.898 1104.52 370.782 1085.27 370.782H1019.49C1019.39 370.782 1019.29 370.714 1019.22 370.68L1019.15 370.612L1019.12 370.544C1019.08 370.442 1019.01 370.238 1019.15 370.136L1036.26 347.109C1040.85 349.252 1045.14 350.544 1048.91 351.394C1052.86 352.211 1057.31 352.551 1062.25 352.551C1076.06 352.551 1088.57 349.762 1099.42 344.15C1110.27 338.571 1119.01 330.986 1125.24 321.292C1131.5 311.769 1134.63 301.054 1134.63 289.728C1134.63 277.551 1128.71 255.374 1112.59 244.014C1112.59 243.911 1112.65 243.877 1112.69 243.843H1112.76L1148.13 247.789V231.497H1091.53C1082.79 228.673 1073.57 227.041 1064.01 227.041ZM1083.78 329.966C1077.52 333.265 1070.78 335.068 1064.05 335.068C1053.03 335.068 1043.33 331.122 1035.1 323.401C1026.87 315.68 1022.76 304.32 1022.76 289.864C1022.76 275.408 1026.87 264.048 1035.1 256.326C1043.33 248.605 1053.03 244.66 1064.05 244.66C1070.68 244.66 1076.97 246.156 1082.99 249.32L1083.78 249.728C1090.03 253.027 1095.14 258.129 1099.25 264.864C1103.2 271.599 1105.34 280 1105.34 289.864C1105.34 299.898 1103.37 308.265 1099.25 314.864C1095.27 321.565 1090 326.667 1083.78 329.966ZM1039.18 390.442H1083.78C1096.12 390.442 1104.01 392.925 1109.29 398.163C1114.56 403.435 1117.18 410.476 1117.18 418.707C1117.18 430.714 1112.42 440.578 1102.86 447.959C1093.3 455.374 1080.48 459.15 1064.69 459.15C1050.89 459.15 1039.35 456.02 1030.99 450.102C1022.59 444.184 1018.33 435.136 1018.33 423.639C1018.33 416.394 1020.31 409.66 1024.25 403.741C1028.16 397.857 1032.93 393.571 1039.18 390.442Z" fill="#001E2B"/>
</svg>
