<svg width="3536" height="500" viewBox="0 0 3536 500" fill="none" xmlns="http://www.w3.org/2000/svg">
<mask id="mask0_259_313" style="mask-type:luminance" maskUnits="userSpaceOnUse" x="0" y="35" width="1215" height="430">
<path d="M1214.29 35.7144H0V464.286H1214.29V35.7144Z" fill="white"/>
</mask>
<g mask="url(#mask0_259_313)">
<path d="M458.5 35.7144L218.571 463.893H0L187.321 129.572C216.393 77.7144 288.857 35.7144 349.214 35.7144H458.5ZM994.5 142.75C994.5 83.6429 1043.43 35.7144 1103.79 35.7144C1164.14 35.7144 1213.07 83.6429 1213.07 142.75C1213.07 201.893 1164.14 249.822 1103.79 249.822C1043.43 249.822 994.5 201.893 994.5 142.75ZM499.464 35.7144H718.036L478.107 463.893H259.536L499.464 35.7144ZM757.643 35.7144H976.214L788.857 370.072C759.821 421.893 687.357 463.893 627 463.893H517.714L757.643 35.7144Z" fill="#0B1012"/>
</g>
<path d="M1428.57 22.6006H1532.21L1671.01 361.379H1676.49L1815.29 22.6006H1918.93V490.132H1837.66V168.933H1833.32L1704.11 488.764H1643.39L1514.18 168.248H1509.84V490.132H1428.57V22.6006Z" fill="black"/>
<path d="M2160.47 496.982C2126.22 496.982 2096.55 489.447 2071.43 474.382C2046.32 459.314 2026.84 438.236 2012.99 411.147C1999.3 384.057 1992.45 352.4 1992.45 316.178C1992.45 279.957 1999.3 248.224 2012.99 220.982C2026.84 193.74 2046.32 172.585 2071.43 157.518C2096.55 142.452 2126.22 134.918 2160.47 134.918C2194.71 134.918 2224.39 142.452 2249.5 157.518C2274.61 172.585 2294.01 193.74 2307.71 220.982C2321.56 248.224 2328.48 279.957 2328.48 316.178C2328.48 352.4 2321.56 384.057 2307.71 411.147C2294.01 438.236 2274.61 459.314 2249.5 474.382C2224.39 489.447 2194.71 496.982 2160.47 496.982ZM2160.92 430.779C2179.49 430.779 2195.01 425.679 2207.5 415.482C2219.97 405.136 2229.26 391.286 2235.35 373.936C2241.58 356.585 2244.71 337.257 2244.71 315.95C2244.71 294.491 2241.58 275.086 2235.35 257.737C2229.26 240.234 2219.97 226.309 2207.5 215.96C2195.01 205.611 2179.49 200.437 2160.92 200.437C2141.9 200.437 2126.07 205.611 2113.44 215.96C2100.96 226.309 2091.6 240.234 2085.36 257.737C2079.27 275.086 2076.23 294.491 2076.23 315.95C2076.23 337.257 2079.27 356.585 2085.36 373.936C2091.6 391.286 2100.96 405.136 2113.44 415.482C2126.07 425.679 2141.9 430.779 2160.92 430.779Z" fill="black"/>
<path d="M2573.72 139.483V203.404H2372.14V139.483H2573.72ZM2421.91 55.4736H2504.55V384.664C2504.55 395.775 2506.22 404.296 2509.57 410.232C2513.07 416.014 2517.64 419.971 2523.27 422.103C2528.9 424.235 2535.14 425.3 2541.99 425.3C2547.16 425.3 2551.88 424.918 2556.14 424.157C2560.55 423.396 2563.9 422.71 2566.19 422.103L2580.11 486.707C2575.7 488.232 2569.38 489.903 2561.16 491.732C2553.1 493.557 2543.2 494.621 2531.49 494.928C2510.79 495.535 2492.14 492.414 2475.55 485.568C2458.96 478.568 2445.8 467.76 2436.06 453.15C2426.47 438.539 2421.75 420.278 2421.91 398.36V55.4736Z" fill="black"/>
<path d="M2642.83 490.132V139.484H2725.47V490.132H2642.83ZM2684.38 89.7168C2671.29 89.7168 2660.03 85.3796 2650.59 76.7046C2641.16 67.8775 2636.44 57.3 2636.44 44.9725C2636.44 32.4929 2641.16 21.9156 2650.59 13.2406C2660.03 4.41354 2671.29 0 2684.38 0C2697.62 0 2708.88 4.41354 2718.17 13.2406C2727.6 21.9156 2732.32 32.4929 2732.32 44.9725C2732.32 57.3 2727.6 67.8775 2718.17 76.7046C2708.88 85.3796 2697.62 89.7168 2684.38 89.7168Z" fill="black"/>
<path d="M2963.41 496.982C2929.17 496.982 2899.49 489.447 2874.38 474.382C2849.27 459.314 2829.79 438.236 2815.94 411.147C2802.24 384.057 2795.39 352.4 2795.39 316.178C2795.39 279.957 2802.24 248.224 2815.94 220.982C2829.79 193.74 2849.27 172.585 2874.38 157.518C2899.49 142.452 2929.17 134.918 2963.41 134.918C2997.65 134.918 3027.33 142.452 3052.44 157.518C3077.55 172.585 3096.96 193.74 3110.66 220.982C3124.51 248.224 3131.43 279.957 3131.43 316.178C3131.43 352.4 3124.51 384.057 3110.66 411.147C3096.96 438.236 3077.55 459.314 3052.44 474.382C3027.33 489.447 2997.65 496.982 2963.41 496.982ZM2963.87 430.779C2982.44 430.779 2997.96 425.679 3010.44 415.482C3022.92 405.136 3032.2 391.286 3038.29 373.936C3044.53 356.585 3047.65 337.257 3047.65 315.95C3047.65 294.491 3044.53 275.086 3038.29 257.737C3032.2 240.234 3022.92 226.309 3010.44 215.96C2997.96 205.611 2982.44 200.437 2963.87 200.437C2944.84 200.437 2929.02 205.611 2916.39 215.96C2903.9 226.309 2894.55 240.234 2888.3 257.737C2882.22 275.086 2879.17 294.491 2879.17 315.95C2879.17 337.257 2882.22 356.585 2888.3 373.936C2894.55 391.286 2903.9 405.136 2916.39 415.482C2929.02 425.679 2944.84 430.779 2963.87 430.779Z" fill="black"/>
<path d="M3284.19 284.674V490.132H3201.56V139.484H3280.54V199.067H3284.65C3292.72 179.434 3305.58 163.834 3323.23 152.268C3341.04 140.701 3363.03 134.918 3389.21 134.918C3413.41 134.918 3434.48 140.093 3452.44 150.442C3470.56 160.79 3484.56 175.782 3494.45 195.414C3504.49 215.047 3509.44 238.865 3509.29 266.868V490.132H3426.65V279.652C3426.65 256.215 3420.56 237.875 3408.38 224.635C3396.36 211.394 3379.69 204.774 3358.39 204.774C3343.93 204.774 3331.07 207.97 3319.81 214.362C3308.7 220.602 3299.95 229.657 3293.56 241.528C3287.32 253.399 3284.19 267.781 3284.19 284.674Z" fill="black"/>
</svg>
