<svg width="1223" height="500" viewBox="0 0 1223 500" fill="none" xmlns="http://www.w3.org/2000/svg">
<g clip-path="url(#clip0_259_248)">
<path d="M278.145 496.847V370.801L280.758 368.188H312.273L314.887 370.801V496.847L312.273 499.46H280.758L278.145 496.847Z" fill="#2AB5B5"/>
<path d="M278.145 129.181V3.13595L280.758 0.522705H312.273L314.887 3.13595V129.181L312.273 131.794H280.758L278.145 129.181Z" fill="#2AB5B5"/>
<path d="M169.695 408.24H165.375L143.702 386.568V382.247L184.312 341.603L207.256 341.638L210.322 344.652V367.596L169.695 408.24Z" fill="#2AB5B5"/>
<path d="M143.702 118.903V114.53L165.375 92.8921H169.695L210.305 133.502V156.394L207.239 159.495H184.294L143.702 118.903Z" fill="#2AB5B5"/>
<path d="M1.08883 231.585H179.66L182.273 234.199V265.749L179.66 268.362H1.08883L-1.52441 265.749V234.199L1.08883 231.585Z" fill="#2AB5B5"/>
<path d="M1052.26 231.638H1220.29L1222.9 234.251V265.767L1220.29 268.38H1039.1L1036.49 265.767L1049.59 234.251L1052.2 231.638H1052.26Z" fill="#2AB5B5"/>
<path d="M355.619 315.679H324.103L321.49 313.066V239.32C321.49 226.184 316.351 216.01 300.514 215.697C292.344 215.488 283.041 215.697 273.093 216.097L271.577 217.613V247.404V313.031L268.964 315.644H237.448L234.835 313.031V186.986L237.448 184.373H308.337C335.88 184.373 358.215 206.707 358.215 234.251V313.031L355.602 315.644V315.679H355.619Z" fill="#004847"/>
<path d="M508.215 260.488L505.601 263.101H424.138L421.525 265.714C421.525 270.975 426.786 286.742 447.814 286.742C455.689 286.742 463.563 284.129 466.229 278.867L468.842 276.254H500.358L502.971 278.867C500.358 294.617 487.222 318.293 447.797 318.293C403.145 318.293 382.117 286.777 382.117 249.965C382.117 213.153 403.145 181.637 445.183 181.637C487.222 181.637 508.25 213.153 508.25 249.965V260.453V260.488H508.215ZM468.79 234.198C468.79 231.585 466.176 213.171 445.166 213.171C424.138 213.171 421.542 231.585 421.542 234.198L424.155 236.812H466.194L468.79 234.198Z" fill="#004847"/>
<path d="M581.769 276.237C581.769 281.498 584.382 284.111 589.643 284.111H613.285L615.898 286.725V313.014L613.285 315.627H589.643C566.002 315.627 544.992 305.104 544.992 276.202V218.414L542.379 215.801H523.981L521.368 213.188V186.899L523.981 184.285H542.379L544.992 181.672V158.049L547.605 155.435H579.121L581.734 158.049V181.672L584.347 184.285H613.25L615.863 186.899V213.188L613.25 215.801H584.347L581.734 218.414V276.202L581.769 276.237Z" fill="#004847"/>
<path d="M678.999 315.679H647.483L644.87 313.066V134.373L647.483 131.76H678.999L681.612 134.373V313.031L678.999 315.645V315.679Z" fill="#004847"/>
<path d="M749.939 163.258H718.424L715.811 160.644V134.355L718.424 131.742H749.939L752.553 134.355V160.644L749.939 163.258ZM749.939 315.679H718.424L715.811 313.066V186.951L718.424 184.338H749.939L752.553 186.951V313.066L749.939 315.679Z" fill="#004847"/>
<path d="M873.441 134.373V160.662L870.828 163.275H847.187C841.926 163.275 839.312 165.888 839.312 171.15V181.672L841.926 184.286H868.215L870.828 186.899V213.188L868.215 215.801H841.926L839.312 218.415V312.979L836.699 315.592H805.183L802.57 312.979V218.415L799.957 215.801H781.542L778.929 213.188V186.899L781.542 184.286H799.957L802.57 181.672V171.15C802.57 142.247 823.598 131.725 847.222 131.725H870.845L873.459 134.338L873.441 134.373Z" fill="#004847"/>
<path d="M970.619 318.275C960.079 344.564 949.591 360.313 912.832 360.313H899.696L897.082 357.7V331.428L899.696 328.815H912.832C925.967 328.815 928.581 326.202 931.229 318.327V315.714L889.19 213.223V186.934L891.804 184.32H915.445L918.058 186.934L949.574 276.272H952.187L983.703 186.934L986.316 184.32H1009.96L1012.57 186.934V213.223L970.532 318.327L970.619 318.275Z" fill="#004847"/>
</g>
<defs>
<clipPath id="clip0_259_248">
<rect width="1223" height="500" fill="white"/>
</clipPath>
</defs>
</svg>
