<svg width="2688" height="500" viewBox="0 0 2688 500" fill="none" xmlns="http://www.w3.org/2000/svg">
<path d="M723.499 387.5V125.1H798.299C818.032 125.1 835.232 127.5 849.898 132.3C864.565 137.1 876.032 145.234 884.299 156.7C892.565 167.9 896.699 183.1 896.699 202.3C896.699 229.766 887.765 250.166 869.899 263.5C852.032 276.834 828.699 283.5 799.899 283.5H756.699V387.5H723.499ZM756.699 256.3H795.899C818.832 256.3 835.765 252.034 846.699 243.5C857.899 234.7 863.499 220.966 863.499 202.3C863.499 183.366 857.632 170.3 845.898 163.1C834.432 155.634 817.232 151.9 794.299 151.9H756.699V256.3ZM1012.7 392.3C996.962 392.3 982.162 388.3 968.296 380.3C954.696 372.3 943.629 360.7 935.096 345.5C926.829 330.3 922.696 312.034 922.696 290.7C922.696 268.834 926.829 250.3 935.096 235.1C943.629 219.9 954.696 208.3 968.296 200.3C982.162 192.3 996.962 188.3 1012.7 188.3C1028.7 188.3 1043.5 192.3 1057.1 200.3C1070.7 208.3 1081.63 219.9 1089.9 235.1C1098.43 250.3 1102.7 268.834 1102.7 290.7C1102.7 312.034 1098.43 330.3 1089.9 345.5C1081.63 360.7 1070.7 372.3 1057.1 380.3C1043.5 388.3 1028.7 392.3 1012.7 392.3ZM1012.7 365.1C1029.5 365.1 1042.96 358.3 1053.1 344.7C1063.5 330.834 1068.7 312.834 1068.7 290.7C1068.7 268.3 1063.5 250.166 1053.1 236.3C1042.96 222.434 1029.5 215.5 1012.7 215.5C996.162 215.5 982.696 222.434 972.296 236.3C961.896 250.166 956.696 268.3 956.696 290.7C956.696 312.834 961.896 330.834 972.296 344.7C982.696 358.3 996.162 365.1 1012.7 365.1ZM1230.69 392.3C1213.63 392.3 1198.16 388.3 1184.29 380.3C1170.43 372.3 1159.49 360.7 1151.49 345.5C1143.49 330.3 1139.49 312.034 1139.49 290.7C1139.49 268.834 1143.76 250.3 1152.29 235.1C1161.09 219.9 1172.56 208.3 1186.69 200.3C1201.09 192.3 1216.56 188.3 1233.09 188.3C1245.89 188.3 1256.82 190.566 1265.9 195.1C1275.22 199.634 1283.22 204.966 1289.9 211.1L1273.1 232.7C1267.5 227.634 1261.5 223.5 1255.1 220.3C1248.96 217.1 1242.03 215.5 1234.29 215.5C1222.56 215.5 1212.03 218.7 1202.69 225.1C1193.63 231.234 1186.43 240.034 1181.09 251.5C1176.03 262.7 1173.49 275.766 1173.49 290.7C1173.49 312.834 1178.96 330.834 1189.89 344.7C1201.09 358.3 1215.63 365.1 1233.49 365.1C1242.56 365.1 1250.96 363.234 1258.7 359.5C1266.42 355.5 1273.22 350.834 1279.1 345.5L1293.5 367.5C1284.7 375.234 1274.96 381.366 1264.3 385.9C1253.62 390.166 1242.43 392.3 1230.69 392.3ZM1336.31 387.5V102.7H1368.71V295.5H1369.91L1452.71 193.1H1489.11L1423.91 271.1L1497.91 387.5H1461.91L1405.11 293.9L1368.71 336.3V387.5H1336.31ZM1606.14 392.3C1588.8 392.3 1573.06 388.3 1558.94 380.3C1544.8 372.034 1533.6 360.3 1525.34 345.1C1517.06 329.9 1512.94 311.766 1512.94 290.7C1512.94 269.366 1517.06 251.1 1525.34 235.9C1533.86 220.7 1544.8 208.966 1558.14 200.7C1571.46 192.434 1585.46 188.3 1600.12 188.3C1624.94 188.3 1644 196.566 1657.34 213.1C1670.94 229.634 1677.74 251.766 1677.74 279.5C1677.74 282.966 1677.6 286.434 1677.34 289.9C1677.34 293.1 1677.06 295.9 1676.54 298.3H1545.34C1546.66 318.834 1553.06 335.234 1564.54 347.5C1576.26 359.766 1591.46 365.9 1610.14 365.9C1619.46 365.9 1628 364.566 1635.74 361.9C1643.74 358.966 1651.34 355.234 1658.54 350.7L1670.14 372.3C1661.86 377.634 1652.4 382.3 1641.74 386.3C1631.34 390.3 1619.46 392.3 1606.14 392.3ZM1544.94 274.7H1648.94C1648.94 254.966 1644.66 240.034 1636.14 229.9C1627.86 219.5 1616.14 214.3 1600.94 214.3C1587.34 214.3 1575.06 219.634 1564.14 230.3C1553.46 240.7 1547.06 255.5 1544.94 274.7ZM1783.06 392.3C1762.26 392.3 1747.72 386.3 1739.46 374.3C1731.46 362.3 1727.46 346.7 1727.46 327.5V219.9H1698.66V195.1L1729.06 193.1L1733.06 138.7H1760.66V193.1H1813.06V219.9H1760.66V327.9C1760.66 339.9 1762.8 349.234 1767.06 355.9C1771.6 362.3 1779.46 365.5 1790.66 365.5C1794.12 365.5 1797.86 364.966 1801.86 363.9C1805.86 362.566 1809.46 361.366 1812.66 360.3L1819.06 385.1C1813.72 386.966 1807.86 388.566 1801.46 389.9C1795.32 391.5 1789.2 392.3 1783.06 392.3Z" fill="#555555"/>
<path d="M1880.8 387.5V126.7H1970C1988.14 126.7 2004.4 128.7 2018.8 132.7C2033.2 136.434 2044.66 142.966 2053.2 152.3C2061.74 161.634 2066 174.7 2066 191.5C2066 202.966 2062.94 214.3 2056.8 225.5C2050.94 236.434 2042.66 243.9 2032 247.9V249.5C2045.34 252.966 2056.4 259.766 2065.2 269.9C2074.26 279.766 2078.8 293.366 2078.8 310.7C2078.8 328.566 2074.26 343.1 2065.2 354.3C2056.14 365.5 2044 373.9 2028.8 379.5C2013.6 384.834 1996.54 387.5 1977.6 387.5H1880.8ZM1939.6 231.1H1967.2C1981.6 231.1 1992 228.3 1998.4 222.7C2005.06 217.1 2008.4 209.634 2008.4 200.3C2008.4 190.166 2005.06 182.966 1998.4 178.7C1991.74 174.434 1981.46 172.3 1967.6 172.3H1939.6V231.1ZM1939.6 341.9H1972.8C2005.06 341.9 2021.2 330.166 2021.2 306.7C2021.2 295.234 2017.2 287.1 2009.2 282.3C2001.2 277.234 1989.06 274.7 1972.8 274.7H1939.6V341.9ZM2168.19 392.3C2150.05 392.3 2135.65 386.566 2124.99 375.1C2114.33 363.366 2108.99 349.1 2108.99 332.3C2108.99 311.5 2117.79 295.234 2135.39 283.5C2152.99 271.766 2181.39 263.9 2220.59 259.9C2220.05 251.1 2217.39 244.166 2212.59 239.1C2208.05 233.766 2200.33 231.1 2189.39 231.1C2181.13 231.1 2172.73 232.7 2164.19 235.9C2155.65 239.1 2146.59 243.5 2136.99 249.1L2115.79 210.3C2128.33 202.566 2141.65 196.3 2155.79 191.5C2170.19 186.7 2185.13 184.3 2200.59 184.3C2225.93 184.3 2245.39 191.634 2258.99 206.3C2272.59 220.966 2279.39 243.5 2279.39 273.9V387.5H2231.39L2227.39 367.1H2225.79C2217.53 374.566 2208.59 380.7 2198.99 385.5C2189.65 390.034 2179.39 392.3 2168.19 392.3ZM2188.19 346.7C2194.85 346.7 2200.59 345.234 2205.39 342.3C2210.45 339.1 2215.53 334.966 2220.59 329.9V295.1C2199.79 297.766 2185.39 302.034 2177.39 307.9C2169.39 313.5 2165.39 320.166 2165.39 327.9C2165.39 334.3 2167.39 339.1 2171.39 342.3C2175.65 345.234 2181.25 346.7 2188.19 346.7ZM2387.53 392.3C2374.46 392.3 2360.99 389.766 2347.13 384.7C2333.53 379.634 2321.66 372.966 2311.53 364.7L2337.93 327.9C2346.99 334.566 2355.66 339.766 2363.93 343.5C2372.46 346.966 2380.86 348.7 2389.13 348.7C2397.93 348.7 2404.33 347.234 2408.33 344.3C2412.33 341.1 2414.33 336.966 2414.33 331.9C2414.33 327.366 2412.33 323.634 2408.33 320.7C2404.59 317.766 2399.66 315.1 2393.53 312.7C2387.39 310.034 2380.86 307.366 2373.93 304.7C2365.93 301.5 2357.93 297.5 2349.93 292.7C2342.19 287.9 2335.66 281.766 2330.33 274.3C2324.99 266.566 2322.33 257.234 2322.33 246.3C2322.33 227.9 2329.26 212.966 2343.13 201.5C2357.26 190.034 2375.66 184.3 2398.33 184.3C2413.53 184.3 2426.86 186.966 2438.33 192.3C2450.06 197.366 2460.06 203.1 2468.33 209.5L2441.93 244.7C2434.99 239.366 2428.06 235.234 2421.13 232.3C2414.19 229.366 2407.26 227.9 2400.33 227.9C2385.13 227.9 2377.53 233.1 2377.53 243.5C2377.53 249.9 2381.26 254.834 2388.73 258.3C2396.46 261.5 2405.39 264.966 2415.53 268.7C2424.06 271.634 2432.33 275.5 2440.33 280.3C2448.59 284.834 2455.39 290.966 2460.73 298.7C2466.33 306.166 2469.13 316.034 2469.13 328.3C2469.13 346.166 2462.19 361.366 2448.33 373.9C2434.46 386.166 2414.19 392.3 2387.53 392.3ZM2595.28 392.3C2576.34 392.3 2559.28 388.166 2544.08 379.9C2528.88 371.634 2516.88 359.766 2508.08 344.3C2499.28 328.834 2494.88 310.166 2494.88 288.3C2494.88 266.7 2499.28 248.166 2508.08 232.7C2517.14 217.234 2528.88 205.366 2543.28 197.1C2557.68 188.566 2572.74 184.3 2588.48 184.3C2607.4 184.3 2623 188.566 2635.28 197.1C2647.8 205.366 2657.14 216.7 2663.28 231.1C2669.68 245.234 2672.88 261.366 2672.88 279.5C2672.88 284.566 2672.6 289.634 2672.08 294.7C2671.54 299.5 2671 303.1 2670.48 305.5H2551.68C2554.34 319.9 2560.34 330.566 2569.68 337.5C2579 344.166 2590.2 347.5 2603.28 347.5C2617.4 347.5 2631.68 343.1 2646.08 334.3L2665.68 369.9C2655.54 376.834 2644.2 382.3 2631.68 386.3C2619.14 390.3 2607 392.3 2595.28 392.3ZM2551.28 266.7H2622.88C2622.88 255.766 2620.2 246.834 2614.88 239.9C2609.8 232.7 2601.4 229.1 2589.68 229.1C2580.6 229.1 2572.48 232.3 2565.28 238.7C2558.08 244.834 2553.4 254.166 2551.28 266.7Z" fill="#222222"/>
<path d="M309.998 25C318.283 25 325 31.7183 325 40.0025V156.25L319.201 168.579L334.094 183.985L350 175H459.998C468.283 175 475 181.719 475 190.003V459.998C475 468.283 468.283 475 459.998 475H190.003C181.719 475 175 468.283 175 459.998V325L177.966 323.425L176.575 321.985L175 325H40.0025C31.7183 325 25 318.283 25 309.998V40.0025C25 31.7183 31.7183 25 40.0025 25H309.998Z" fill="white"/>
<path fill-rule="evenodd" clip-rule="evenodd" d="M309.998 12.5C325.186 12.5 337.5 24.815 337.5 40.0025V162.5H459.998C475.186 162.5 487.5 174.816 487.5 190.003V459.998C487.5 475.186 475.186 487.5 459.998 487.5H190.003C174.816 487.5 162.5 475.186 162.5 459.998V337.5H40.0025C24.815 337.5 12.5 325.186 12.5 309.998V40.0025C12.5 24.8146 24.8146 12.5 40.0025 12.5H309.998ZM40.0025 37.5C38.6218 37.5 37.5 38.6218 37.5 40.0025V309.998C37.5 311.379 38.6214 312.5 40.0025 312.5H175C181.904 312.5 187.5 318.096 187.5 325V459.998C187.5 461.379 188.621 462.5 190.003 462.5H459.998C461.379 462.5 462.5 461.379 462.5 459.998V190.003C462.5 188.621 461.379 187.5 459.998 187.5H325C318.096 187.5 312.5 181.904 312.5 175V40.0025C312.5 38.6214 311.379 37.5 309.998 37.5H40.0025Z" fill="#16161A"/>
<path d="M125 250C118.096 250 112.5 244.404 112.5 237.5V100C112.5 93.0965 118.096 87.5 125 87.5H171.914C181.001 87.5 189.489 88.4139 197.376 90.2415C205.435 91.9031 212.38 94.8109 218.21 98.9648C224.211 102.953 228.926 108.353 232.356 115.165C235.785 121.811 237.5 130.036 237.5 139.839C237.5 149.31 235.7 157.535 232.099 164.513C228.67 171.491 223.954 177.224 217.952 181.71C211.951 186.196 205.006 189.52 197.119 191.68C189.231 193.84 180.83 194.92 171.914 194.92H162.809C155.905 194.92 150.309 200.516 150.309 207.42V237.5C150.309 244.404 144.713 250 137.809 250H125ZM150.309 153.259C150.309 160.163 155.905 165.759 162.809 165.759H169.599C190.175 165.759 200.463 157.119 200.463 139.839C200.463 131.365 197.805 125.384 192.49 121.894C187.346 118.405 179.715 116.66 169.599 116.66H162.809C155.905 116.66 150.309 122.257 150.309 129.16V153.259Z" fill="#16161A"/>
<path d="M275 412.5C268.096 412.5 262.5 406.904 262.5 400V262.5C262.5 255.596 268.096 250 275 250H318.596C327.305 250 335.331 250.665 342.674 251.994C350.188 253.158 356.678 255.318 362.141 258.474C367.606 261.631 371.875 265.785 374.949 270.935C378.194 276.086 379.815 282.566 379.815 290.376C379.815 294.031 379.218 297.686 378.023 301.343C376.998 304.998 375.29 308.404 372.9 311.56C370.509 314.718 367.52 317.543 363.935 320.035C360.462 322.448 356.351 324.238 351.599 325.404C351.322 325.473 351.128 325.719 351.128 326.003C351.128 326.299 351.341 326.552 351.632 326.607C363.336 328.792 372.218 332.915 378.279 338.976C384.426 345.124 387.5 353.681 387.5 364.648C387.5 372.955 385.878 380.1 382.634 386.081C379.389 392.062 374.864 397.048 369.057 401.035C363.251 404.856 356.421 407.765 348.565 409.759C340.881 411.586 332.514 412.5 323.464 412.5H275ZM300.154 302.799C300.154 309.702 305.75 315.299 312.654 315.299H316.804C326.025 315.299 332.685 313.555 336.783 310.065C340.881 306.576 342.93 301.674 342.93 295.36C342.93 289.379 340.796 285.141 336.526 282.65C332.429 279.991 325.939 278.661 317.06 278.661H312.654C305.75 278.661 300.154 284.259 300.154 291.161V302.799ZM300.154 371.339C300.154 378.241 305.75 383.839 312.654 383.839H320.389C340.54 383.839 350.615 376.527 350.615 361.906C350.615 354.761 348.139 349.61 343.186 346.454C338.405 343.296 330.806 341.718 320.389 341.718H312.654C305.75 341.718 300.154 347.314 300.154 354.218V371.339Z" fill="#16161A"/>
</svg>
