<svg width="2180" height="500" viewBox="0 0 2180 500" fill="none" xmlns="http://www.w3.org/2000/svg">
<g clip-path="url(#clip0_259_271)">
<path d="M5.63538 213.729C4.47931 222.11 3.61226 230.492 3.32324 238.873H383.959C382.514 236.272 380.78 233.96 379.046 231.648C314.017 147.544 279.046 154.769 228.757 152.746C211.994 152.168 200.722 151.879 134.248 151.879C98.699 151.879 59.9706 151.879 22.3984 152.168C17.4851 165.463 12.8608 178.18 10.5487 188.584H205.635V214.018H5.63538V213.729ZM386.849 264.307H3.32324C3.61226 270.954 4.47931 277.891 5.34637 284.249H359.393C375.289 284.538 383.959 275.578 386.849 264.307ZM25.2886 353.613C25.2886 353.613 83.9591 497.833 253.612 500.434C355.057 500.434 442.052 440.318 481.647 353.613H25.2886Z" fill="#1D1D1B"/>
<path d="M253.613 -0.722656C159.971 -0.722656 78.179 50.7224 35.1154 126.734C68.6414 126.734 134.248 126.734 134.248 126.734C211.705 126.734 214.595 127.023 229.624 127.601L238.873 127.89C271.532 129.046 311.705 132.514 343.208 156.503C360.26 169.509 385.115 198.121 399.855 218.352C413.439 237.139 417.485 258.815 408.237 279.624C399.566 298.699 381.358 309.971 359.104 309.971H11.416C11.416 309.971 13.4391 318.641 16.6183 328.468H491.763C500.144 303.035 504.48 276.445 504.48 249.855C504.48 111.416 392.052 -0.722656 253.613 -0.722656ZM756.503 354.48H815.751V255.347H858.815L911.705 354.48H977.023L917.774 245.809C949.566 232.225 967.196 204.48 967.196 166.329C967.196 110.838 930.491 74.9999 866.907 74.9999H756.503V354.48ZM815.751 207.948V123.266H855.636C889.74 123.266 906.214 138.295 906.214 166.329C906.214 194.075 889.74 207.948 855.925 207.948H815.751ZM1067.49 358.526C1098.41 358.526 1118.64 344.942 1128.76 325.578H1130.49V354.769H1185.69V213.439C1185.69 163.439 1143.5 142.341 1096.68 142.341C1046.39 142.341 1013.44 166.329 1005.35 204.48L1059.1 208.815C1063.15 194.942 1075.58 184.537 1096.39 184.537C1116.04 184.537 1127.6 194.364 1127.6 211.705V212.572C1127.6 226.156 1113.15 227.89 1076.73 231.358C1035.12 235.115 997.832 248.988 997.832 295.809C997.832 337.428 1027.6 358.526 1067.49 358.526ZM1084.25 318.352C1066.33 318.352 1053.61 309.971 1053.61 294.075C1053.61 277.601 1067.2 269.509 1087.72 266.907C1100.43 265.173 1121.24 261.994 1128.18 257.37V279.624C1127.89 301.589 1109.68 318.352 1084.25 318.352ZM1230.78 354.48H1288.87V144.653H1230.78V354.48ZM1259.97 117.774C1277.31 117.774 1291.47 104.48 1291.47 88.2947C1291.47 72.1097 1277.31 58.8149 1259.97 58.8149C1242.63 58.8149 1228.47 72.1097 1228.47 88.2947C1228.47 104.48 1242.63 117.774 1259.97 117.774ZM1393.79 74.9999H1335.69V354.48H1393.79V74.9999ZM1481.65 354.48H1543.21L1579.33 222.688H1581.94L1618.06 354.48H1679.62L1736.56 144.653H1677.89L1645.81 284.826H1644.07L1609.68 144.653H1551.88L1518.06 285.405H1516.04L1483.67 144.653H1424.71L1481.65 354.48ZM1827.02 358.526C1857.95 358.526 1878.18 344.942 1888.29 325.578H1890.03V354.769H1945.23V213.439C1945.23 163.439 1903.03 142.341 1856.21 142.341C1805.92 142.341 1772.98 166.329 1764.88 204.48L1818.64 208.815C1822.69 194.942 1835.12 184.537 1855.92 184.537C1875.87 184.537 1887.14 194.364 1887.14 211.705V212.572C1887.14 226.156 1872.69 227.89 1836.27 231.358C1794.65 235.115 1757.37 248.988 1757.37 295.809C1757.37 337.428 1787.14 358.526 1827.02 358.526ZM1843.79 318.352C1825.87 318.352 1813.15 309.971 1813.15 294.075C1813.15 277.601 1826.73 269.509 1847.25 266.907C1859.97 265.173 1880.78 261.994 1887.72 257.37V279.624C1887.43 301.589 1869.22 318.352 1843.79 318.352ZM2018.64 433.092C2061.99 433.092 2084.83 410.838 2096.68 377.023L2178.18 144.942L2116.62 144.653L2072.69 298.699H2070.38L2027.02 144.653H1965.75L2040.9 360.26L2037.43 369.22C2029.91 388.873 2015.17 389.74 1994.65 383.67L1981.65 427.023C1990.32 430.78 2003.9 433.092 2018.64 433.092Z" fill="#1D1D1B"/>
</g>
<defs>
<clipPath id="clip0_259_271">
<rect width="2179.19" height="500" fill="white"/>
</clipPath>
</defs>
</svg>
