<svg width="1447" height="500" viewBox="0 0 1447 500" fill="none" xmlns="http://www.w3.org/2000/svg">
<path d="M375.488 20.1168C348.437 24.1207 317.382 41.2105 285.84 69.6285L278.32 76.4644L272.656 71.0933C253.125 52.5386 224.609 34.0816 203.711 26.4644C163.964 12.109 136.23 23.4371 125.097 58.5933C117.968 81.1519 118.066 116.211 125.488 151.269C126.855 157.421 127.539 162.793 127.148 163.086C126.757 163.476 120.898 165.527 114.062 167.773C64.8434 183.886 29.9801 209.765 21.6793 236.328C19.0426 244.726 19.5309 257.714 22.6559 265.429C26.6598 275.097 31.152 281.933 39.0621 290.039C56.3473 307.714 80.6637 321.777 114.257 333.398C121.484 335.937 127.539 338.086 127.636 338.281C127.734 338.378 127.441 340.039 126.953 341.894C124.707 349.414 121.093 373.046 120.117 386.718C118.164 413.183 121.289 435.058 129.492 451.953C134.668 462.597 141.601 470.214 150.293 474.609C158.105 478.515 163.769 479.687 174.804 479.589C201.464 479.492 233.3 464.062 267.675 434.668L279.297 424.707L289.257 433.496C324.804 464.355 356.054 479.882 382.812 479.785C398.047 479.785 407.715 475.976 416.992 466.504C426.757 456.543 433.105 441.308 436.132 420.8C439.062 400.586 437.011 367.675 431.25 342.968C430.468 339.648 430.175 336.718 430.468 336.523C430.859 336.328 435.547 334.765 440.918 333.007C461.621 326.171 482.129 316.406 497.949 305.957C502.539 302.832 511.035 295.703 516.699 290.039C525.195 281.64 527.734 278.418 530.957 271.875C540.625 252.441 538.379 235.156 523.73 216.699C508.886 198.144 478.808 180.078 442.871 168.164C435.351 165.625 429.101 163.574 429.004 163.574C429.004 163.574 429.98 158.593 431.152 152.539C436.23 128.418 437.988 96.8746 435.449 78.6129C431.347 48.73 418.75 28.9058 399.707 22.3629C394.238 20.5074 381.152 19.3355 375.488 20.1168ZM188.476 45.9957C203.418 49.9996 225.097 62.109 243.359 76.7574C251.855 83.5933 261.718 92.4801 261.718 93.2614C261.718 93.5544 258.984 96.6794 255.761 100.293C248.339 108.496 228.418 133.203 222.851 141.211L218.652 147.168L211.23 147.851C200.781 148.73 178.515 152.05 163.672 154.882C156.836 156.25 150.976 157.128 150.781 156.933C150.097 156.25 146.582 139.257 144.824 128.222C142.578 114.062 142.578 84.3746 144.726 74.7066C151.172 46.484 162.304 39.1597 188.476 45.9957ZM391.015 44.0425C400.097 46.5816 407.812 58.2027 411.425 75.0972C413.769 86.1324 414.16 112.011 412.207 125.976C410.449 138.378 407.031 155.664 406.152 156.64C405.664 157.128 400 156.445 392.382 154.98C377.832 152.05 356.738 148.925 345.605 147.851L338.183 147.265L332.519 139.257C324.218 127.832 313.476 114.257 303.515 102.832L294.922 92.9684L301.953 86.5231C318.554 71.6794 333.691 61.0347 349.121 53.2222C366.699 44.3355 380.859 41.2105 391.015 44.0425ZM287.793 120.41C299.511 134.082 306.933 143.554 306.445 144.14C306.152 144.336 293.359 144.433 277.929 144.336L249.804 144.043L256.836 135.351C266.113 123.73 277.636 110.449 278.515 110.351C278.906 110.351 283.105 114.843 287.793 120.41ZM304.687 167.968C323.339 168.847 324.804 169.043 326.269 170.996C333.203 180.273 353.906 215.039 365.527 237.207L371.875 249.316L365.625 261.816C358.007 277.148 343.75 302.05 333.3 318.359L325.586 330.566L320.214 331.347C313.183 332.324 248.632 332.617 239.062 331.64L231.445 330.859L220.898 314.16C208.3 294.336 198.632 277.246 190.82 261.425L185.058 250L190.82 238.476C198.632 222.753 211.328 200.488 222.363 183.3C230.957 169.921 231.836 168.945 234.668 168.847C236.425 168.75 243.945 168.359 251.464 168.066C272.461 166.992 282.91 166.992 304.687 167.968ZM191.699 188.671C186.425 197.461 180.175 208.496 177.734 213.183C175.293 217.871 173.047 221.679 172.754 221.679C171.484 221.679 156.543 181.054 157.519 180.078C158.496 179.003 200 171.679 200.976 172.363C201.172 172.558 196.972 179.882 191.699 188.671ZM366.211 173.828C370.215 174.414 379.492 175.976 386.914 177.441L400.195 179.98L396.777 189.843C393.652 199.023 384.863 221.777 384.277 222.461C384.179 222.656 381.738 218.457 378.906 213.183C376.074 208.007 369.531 196.484 364.257 187.793C356.543 174.902 355.175 171.972 356.836 172.363C357.91 172.558 362.207 173.242 366.211 173.828ZM135.644 189.648C138.281 198.437 147.07 221.777 153.027 235.644L159.179 250.097L154.785 260.156C149.121 273.242 140.625 295.312 137.207 305.664C135.742 310.253 134.179 314.355 133.789 314.746C132.714 316.015 111.035 308.007 96.0934 300.781C78.5153 292.382 66.8942 284.668 57.0309 274.902C47.2653 265.136 43.4567 258.105 43.4567 249.511C43.4567 241.308 46.484 235.644 56.0543 225.976C70.6051 211.328 93.5543 198.73 123.535 188.867C128.906 187.109 133.593 185.644 133.886 185.644C134.179 185.546 134.961 187.402 135.644 189.648ZM442.382 192.578C468.066 202.148 488.281 213.769 500.488 226.074C508.3 233.789 513.672 243.164 513.672 249.023C513.672 265.918 490.332 287.304 455.175 302.734C440.625 309.082 423.828 314.648 423.34 313.183C423.047 312.597 421.484 308.007 419.824 303.222C415.625 291.308 408.398 273.144 402.539 260.351L397.754 249.707L402.441 239.16C407.91 226.757 416.797 203.711 420.019 193.554L422.265 186.425L425.781 187.011C427.636 187.402 435.156 189.843 442.382 192.578ZM390.918 292.48C398.144 311.035 400.879 319.238 400.097 319.921C398.73 321.386 356.738 328.711 355.664 327.734C355.468 327.441 356.933 324.511 359.082 321.093C364.16 313.086 377.929 289.062 381.25 282.324C382.714 279.492 384.277 277.441 384.765 277.929C385.156 278.418 387.988 284.961 390.918 292.48ZM179.687 290.332C183.203 296.875 189.648 308.105 194.043 315.332L202.148 328.418L195.605 327.734C188.769 327.05 161.914 322.558 158.984 321.679C158.007 321.386 157.226 320.507 157.226 319.824C157.226 316.894 171.679 278.32 172.754 278.32C173.047 278.32 176.172 283.691 179.687 290.332ZM409.375 351.074C416.699 385.742 416.113 420.019 407.715 438.183C403.906 446.679 400.488 450.976 395.605 453.906C391.504 456.25 390.234 456.543 381.836 456.445C374.511 456.347 370.996 455.859 364.941 453.808C345.41 447.07 321.582 431.738 301.269 412.89L295.507 407.519L301.855 400.293C310.742 390.234 318.261 380.761 329.199 365.918L338.476 353.125L353.808 351.367C367.871 349.804 393.261 345.8 401.367 343.75C407.226 342.382 407.617 342.675 409.375 351.074ZM172.363 347.656C181.445 349.218 195.703 351.171 204.004 351.953C212.304 352.832 219.238 353.613 219.336 353.808C219.433 353.906 223.437 359.277 228.222 365.722C237.207 377.832 247.558 390.527 257.226 401.367L262.793 407.519L260.547 409.961C259.277 411.23 253.906 416.015 248.535 420.41C213.574 449.218 178.613 462.793 161.621 454.003C148.535 447.265 141.699 425.488 142.871 394.043C143.359 380.371 146.679 356.836 149.414 347.363C150.39 343.945 150.781 343.652 153.125 344.238C154.589 344.628 163.183 346.093 172.363 347.656ZM305.468 358.593C302.832 362.402 285.351 383.984 281.64 388.086L279.101 391.015L276.465 387.988C266.797 376.66 254.004 361.328 252.148 358.593L249.902 355.468H278.808H307.715L305.468 358.593Z" fill="black"/>
<path d="M266.602 204.59C252.735 208.496 242.871 216.602 236.817 229.004C221.485 259.961 243.848 295.898 278.321 295.898C313.282 295.898 335.352 259.863 319.629 228.32C313.672 216.602 303.125 207.91 290.528 204.59C283.692 202.832 272.657 202.832 266.602 204.59Z" fill="black"/>
<path d="M695.312 235.84V341.797H708.984H722.656V299.805V257.812H742.969H763.379L790.137 299.707L816.895 341.699H832.812C841.504 341.797 848.633 341.504 848.633 341.016C848.633 340.625 836.133 321.387 820.801 298.34L793.066 256.348L800.586 254.59C823.535 249.316 840.527 232.422 845.215 210.254C845.996 206.641 846.68 199.414 846.68 194.336C846.68 164.844 831.738 143.164 805.371 134.277C794.434 130.664 783.691 129.98 737.109 129.883H695.312V235.84ZM784.18 155.176C798.535 157.52 808.887 164.844 814.648 176.563C817.773 182.813 817.871 183.594 817.871 194.336C817.871 204.492 817.578 206.152 815.234 211.133C812.012 218.164 805.273 225.391 798.926 228.906C790.234 233.594 783.594 234.375 751.758 234.375H722.656V194.336V154.297H750.781C766.211 154.297 781.25 154.687 784.18 155.176Z" fill="black"/>
<path d="M1363.28 167.48V188.477H1350.59H1337.89V199.219V209.961H1350.59H1363.18L1363.48 265.82L1363.77 321.777L1366.6 327.93C1372.46 340.527 1381.35 345.312 1398.93 345.117C1410.94 345.02 1417.77 343.066 1423.63 338.184L1426.86 335.449L1423.34 327.246C1421.48 322.754 1419.63 318.75 1419.34 318.262C1419.04 317.773 1417.09 318.555 1414.84 320.02C1409.18 323.828 1400.29 324.316 1395.61 321.094C1393.75 319.922 1391.31 317.09 1390.23 314.941C1388.28 311.133 1388.18 309.57 1387.89 260.449L1387.6 209.961H1403.32H1418.95V199.219V188.477H1403.32H1387.7V167.48V146.484H1375.49H1363.28V167.48Z" fill="black"/>
<path d="M929.199 185.157C899.023 190.04 876.953 209.962 867.578 240.723C865.136 248.731 864.843 250.88 864.941 265.137C864.941 283.79 866.504 291.212 873.73 305.665C877.539 313.282 879.883 316.407 886.718 323.243C891.308 327.833 897.558 333.008 900.683 334.864C924.316 348.731 958.007 349.219 983.984 336.133C989.648 333.301 1002.15 324.122 1002.73 322.266C1003.03 321.583 995.019 309.669 991.992 306.153C991.504 305.665 989.746 306.739 987.5 308.79C974.804 321.192 950.879 327.735 932.812 323.829C917.383 320.606 904.394 310.84 897.265 297.364C893.652 290.43 890.625 280.665 890.625 275.977V273.438H951.757H1012.99L1012.4 260.45C1011.33 235.645 1003.32 216.798 987.988 202.442C980.859 195.801 969.238 189.551 959.472 187.012C953.613 185.45 934.668 184.278 929.199 185.157ZM950.488 206.544C970.41 210.743 985.449 227.93 988.672 250.196L989.355 254.883H940.039H890.625V252.344C890.625 247.657 893.652 237.891 897.265 231.153C907.617 211.231 928.027 201.758 950.488 206.544Z" fill="black"/>
<path d="M1087.21 186.035C1070.51 189.063 1057.42 195.606 1045.7 206.836L1042.09 210.254L1047.95 218.945L1053.81 227.637L1058.5 223.34C1069.53 212.988 1082.03 207.324 1096 206.348C1110.94 205.371 1123.83 209.57 1131.45 218.067C1137.7 225 1138.77 229.688 1138.48 247.852L1138.18 262.598L1132.23 258.008C1112.89 242.969 1083.01 239.649 1061.82 250.293C1044.73 258.984 1035.35 274.317 1035.25 293.945C1035.16 308.789 1039.55 320.02 1049.32 329.785C1070.02 350.488 1108.3 350.879 1133.2 330.567L1138.67 326.172V333.984V341.797H1150.98H1163.18L1162.89 283.399C1162.6 225.879 1162.5 225 1160.35 218.555C1154.39 200.781 1140.63 189.844 1119.14 185.938C1110.06 184.277 1096.48 184.375 1087.21 186.035ZM1116.02 265.234C1124.02 267.871 1132.42 273.047 1136.23 277.539C1138.57 280.371 1138.67 280.859 1138.67 295.02V309.57L1134.08 314.063C1128.52 319.336 1117.97 324.609 1109.67 326.172C1106.35 326.856 1099.51 327.246 1094.53 326.953C1083.01 326.465 1075.39 323.242 1068.75 316.211C1062.4 309.473 1060.25 303.906 1060.16 294.922C1060.16 269.531 1086.82 255.371 1116.02 265.234Z" fill="black"/>
<path d="M1259.57 185.548C1249.02 187.306 1236.72 192.286 1228.03 198.145C1222.46 201.954 1212.7 212.403 1208.5 219.239C1200.1 232.618 1196.29 246.974 1196.29 265.138C1196.29 290.333 1204 309.669 1220.51 325.294C1244.63 348.341 1285.35 352.54 1312.21 334.669C1318.95 330.177 1329.49 320.02 1328.91 318.556C1328.71 318.067 1325.2 314.552 1321 310.645L1313.48 303.419L1306.84 309.767C1296.58 319.728 1287.99 323.243 1273.93 323.243C1244.43 323.243 1223.73 301.563 1221.97 269.044C1220.9 250.196 1226.17 234.181 1237.21 222.364C1247.85 211.036 1260.16 206.446 1277.44 207.228C1290.04 207.813 1298.73 211.817 1307.52 220.802L1313.48 226.856L1321.09 219.63C1325.2 215.626 1328.71 212.11 1328.91 211.72C1329.59 210.353 1318.16 199.317 1312.01 195.313C1298.34 186.427 1277.54 182.52 1259.57 185.548Z" fill="black"/>
</svg>
