<svg width="2235" height="500" viewBox="0 0 2235 500" fill="none" xmlns="http://www.w3.org/2000/svg">
<path d="M2164.26 375V193.164H2207.23V375H2164.26ZM2185.74 167.383C2180.97 167.436 2176.28 166.121 2172.23 163.594C2168.18 161.068 2164.94 157.435 2162.89 153.125C2161.52 150.391 2160.94 147.266 2160.94 144.141C2160.91 141.032 2161.57 137.955 2162.85 135.122C2164.13 132.29 2166.01 129.769 2168.36 127.734C2173.05 123.242 2179.3 120.703 2185.94 120.898C2192.77 120.898 2198.44 123.242 2203.52 127.734C2205.83 129.787 2207.67 132.316 2208.92 135.148C2210.17 137.979 2210.79 141.047 2210.74 144.141C2210.74 150.586 2208.2 156.055 2203.32 160.547C2198.59 165.051 2192.27 167.508 2185.74 167.383ZM2077.34 298.438V193.359H2120.31V375H2078.71V342.773H2076.76C2072.62 352.885 2065.54 361.525 2056.45 367.578C2047.27 374.219 2035.74 377.344 2022.07 377.344C2011.17 377.946 2000.34 375.296 1990.95 369.733C1981.57 364.169 1974.04 355.941 1969.34 346.094C1964.06 335.937 1961.52 323.437 1961.52 308.984V193.164H2004.49V302.344C2004.49 313.867 2007.42 323.047 2013.87 329.688C2020.12 336.523 2028.32 340.039 2038.67 340.039C2044.92 340.039 2051.17 338.477 2057.03 335.352C2062.89 332.227 2067.97 327.539 2071.48 321.68C2075.39 315.43 2077.34 307.812 2077.34 298.633V298.438ZM1934.18 121.094L1856.05 411.523H1818.36L1896.48 121.094H1933.98H1934.18Z" fill="black"/>
<path fill-rule="evenodd" clip-rule="evenodd" d="M417.383 238.867C418.859 240.321 420.032 242.054 420.832 243.965C421.632 245.877 422.044 247.928 422.044 250C422.044 252.072 421.632 254.123 420.832 256.035C420.032 257.946 418.859 259.679 417.383 261.133L261.133 417.383C258.18 420.335 254.176 421.994 250 421.994C245.824 421.994 241.82 420.335 238.867 417.383C235.915 414.43 234.256 410.426 234.256 406.25C234.256 402.074 235.915 398.07 238.867 395.117L395.117 238.867C396.571 237.391 398.304 236.218 400.215 235.418C402.127 234.618 404.178 234.206 406.25 234.206C408.322 234.206 410.373 234.618 412.285 235.418C414.196 236.218 415.929 237.391 417.383 238.867ZM386.133 66.9922C387.609 68.4461 388.782 70.1791 389.582 72.0903C390.382 74.0016 390.794 76.053 390.794 78.125C390.794 80.197 390.382 82.2484 389.582 84.1596C388.782 86.0709 387.609 87.8039 386.133 89.2578L89.2578 386.133C87.7959 387.595 86.0602 388.754 84.1501 389.546C82.2399 390.337 80.1926 390.744 78.125 390.744C76.0575 390.744 74.0102 390.337 72.1 389.546C70.1898 388.754 68.4542 387.595 66.9922 386.133C65.5302 384.671 64.3705 382.935 63.5793 381.025C62.7881 379.115 62.3809 377.068 62.3809 375C62.3809 372.932 62.7881 370.885 63.5793 368.975C64.3705 367.065 65.5302 365.329 66.9922 363.867L363.867 66.9922C365.321 65.5159 367.054 64.3434 368.965 63.5432C370.877 62.7429 372.928 62.3308 375 62.3308C377.072 62.3308 379.123 62.7429 381.035 63.5432C382.946 64.3434 384.679 65.5159 386.133 66.9922Z" fill="black"/>
<path d="M1674.8 268.555V375H1632.03V193.164H1673.05V224.023H1675C1679.1 214.258 1686.13 205.664 1695.12 199.805C1704.3 193.945 1715.82 190.82 1729.3 190.82C1740.75 190.525 1752.08 193.29 1762.11 198.828C1771.48 204.297 1779.1 212.5 1783.98 222.266C1789.06 232.422 1791.8 244.727 1791.6 259.375V375H1748.63V265.82C1748.63 253.711 1745.7 244.336 1739.26 237.305C1735.94 233.794 1731.9 231.049 1727.41 229.261C1722.93 227.473 1718.1 226.686 1713.28 226.953C1705.86 226.953 1699.22 228.711 1693.36 232.031C1687.5 235.352 1682.81 240.234 1679.69 246.094C1676.56 252.344 1674.8 259.766 1674.8 268.555ZM1518.95 378.516C1503.14 379.479 1487.4 375.723 1473.74 367.725C1460.07 359.726 1449.09 347.846 1442.19 333.594C1435.01 318.338 1431.46 301.623 1431.84 284.766C1431.53 267.871 1435.21 251.142 1442.58 235.938C1449.22 222.266 1459.57 210.547 1472.66 202.734C1485.55 194.922 1500.98 190.82 1518.75 190.82C1532.22 190.591 1545.57 193.395 1557.81 199.023C1568.92 204.096 1578.43 212.108 1585.32 222.195C1592.2 232.281 1596.2 244.057 1596.88 256.25H1555.86C1554.48 247.809 1550.36 240.055 1544.14 234.18C1537.89 228.32 1529.69 225.391 1519.34 225.391C1511.13 225.391 1502.93 227.734 1496.29 232.422C1489.65 237.109 1484.57 243.75 1480.66 252.539C1476.77 262.623 1474.92 273.376 1475.2 284.18C1475.2 296.484 1477.15 307.227 1480.66 316.016C1484.38 324.805 1489.45 331.641 1496.09 336.523C1502.9 341.277 1511.04 343.74 1519.34 343.555C1525.59 343.555 1531.25 342.383 1536.33 340.039C1541.21 337.695 1545.7 334.18 1548.83 329.492C1552.54 324.609 1554.69 318.945 1555.86 312.891H1596.88C1596.28 325.003 1592.43 336.732 1585.73 346.838C1579.02 356.944 1569.72 365.054 1558.79 370.313C1546.31 376.064 1532.68 378.87 1518.95 378.516ZM1297.07 378.125C1283.15 378.388 1269.49 374.422 1257.87 366.749C1246.26 359.077 1237.25 348.06 1232.03 335.156C1225.1 319.148 1221.76 301.813 1222.27 284.375C1222.27 264.063 1225.59 247.07 1232.03 233.203C1238.87 219.141 1247.85 208.594 1259.38 201.562C1268.87 195.576 1279.67 191.971 1290.86 191.053C1302.05 190.135 1313.29 191.931 1323.63 196.289C1329.88 199.414 1335.35 203.711 1339.84 209.18C1343.55 213.477 1346.68 218.164 1349.22 223.242H1351.17V132.617H1394.14V375H1351.95V346.289H1349.22C1346.68 351.367 1343.36 356.055 1339.65 360.352C1334.36 366.347 1327.78 371.063 1320.41 374.142C1313.03 377.221 1305.05 378.583 1297.07 378.125ZM1309.18 342.969C1317.52 343.241 1325.71 340.696 1332.42 335.742C1338.67 330.664 1343.55 323.828 1346.88 315.039C1350.33 305.127 1351.99 294.675 1351.76 284.18C1351.76 272.461 1350.2 262.109 1346.88 253.516C1344.13 245.486 1339.11 238.429 1332.42 233.203C1325.65 228.222 1317.39 225.675 1308.98 225.977C1299.61 225.977 1291.6 228.516 1285.16 233.398C1278.91 238.477 1274.02 245.117 1270.7 254.102C1267.31 263.761 1265.66 273.944 1265.82 284.18C1265.82 295.508 1267.58 305.664 1270.7 314.453C1274.02 323.437 1278.91 330.273 1285.35 335.547C1291.8 340.43 1299.8 342.969 1309.18 342.969ZM1090.63 378.711C1079.1 378.711 1068.75 376.758 1059.38 372.461C1050.55 368.528 1043.03 362.159 1037.7 354.102C1032.42 345.898 1029.88 335.937 1029.88 324.023C1029.88 313.672 1031.84 305.273 1035.55 298.633C1039.06 291.992 1044.53 286.328 1050.98 282.422C1057.82 278.248 1065.26 275.152 1073.05 273.242C1081.45 271.289 1090.04 269.531 1098.83 268.75L1124.8 265.82C1131.45 264.844 1136.13 263.281 1139.26 261.523C1142.19 259.57 1143.75 256.445 1143.75 252.344V251.758C1143.75 242.773 1141.02 235.742 1135.94 230.859C1130.47 225.977 1122.85 223.633 1112.89 223.633C1104.1 223.192 1095.41 225.589 1088.09 230.469C1082.42 234.489 1078.13 240.146 1075.78 246.68L1035.74 241.016C1038.47 230.649 1043.77 221.136 1051.14 213.354C1058.51 205.571 1067.73 199.77 1077.93 196.484C1097.63 190.103 1118.7 189.225 1138.87 193.945C1147.46 195.898 1155.47 199.219 1162.7 204.102C1169.92 208.789 1175.98 215.43 1180.08 223.047C1184.38 231.25 1186.52 241.211 1186.52 253.32V375H1145.51V350H1143.95C1137.86 361.531 1127.69 370.376 1115.43 374.805C1108.4 377.344 1100 378.711 1090.63 378.711ZM1101.76 347.266C1110.35 347.266 1117.77 345.312 1124.02 342.187C1130.08 338.867 1135.16 334.18 1138.67 328.516C1142.19 322.656 1143.95 316.406 1143.95 309.766V288.281C1142.58 289.453 1140.23 290.43 1136.91 291.406C1129.54 293.123 1122.11 294.621 1114.65 295.898L1104.49 297.266C1098.24 298.047 1092.38 299.609 1087.5 301.562C1082.81 303.125 1078.71 306.055 1075.39 309.766C1072.46 313.281 1071.09 317.578 1071.09 323.438C1071.09 331.25 1074.02 337.109 1079.69 341.016C1085.55 345.117 1092.77 347.266 1101.76 347.266ZM876.758 268.555V375H833.789V132.617H875.781V224.023H877.735C881.836 214.258 888.867 205.664 897.656 199.805C907.959 193.44 919.933 190.31 932.032 190.82C944.532 190.82 955.469 193.359 965.039 198.633C974.414 204.102 981.641 211.719 986.719 222.07C991.992 232.031 994.532 244.531 994.532 259.18V375H951.758V265.82C951.758 253.711 948.633 244.141 942.188 237.305C938.833 233.789 934.757 231.043 930.238 229.256C925.72 227.469 920.867 226.683 916.016 226.953C908.399 226.953 901.563 228.711 895.703 232.031C889.844 235.156 884.961 240.234 881.641 246.094C878.321 252.344 876.758 259.766 876.758 268.555ZM794.727 241.211L755.664 245.508C754.413 241.245 752.268 237.299 749.372 233.931C746.476 230.563 742.894 227.851 738.867 225.977C733.566 223.714 727.831 222.647 722.071 222.852C713.086 222.852 705.664 224.805 699.61 228.711C693.75 232.617 690.625 237.5 690.625 243.555C690.518 246.013 690.993 248.462 692.011 250.702C693.029 252.942 694.562 254.91 696.485 256.445C700.391 259.766 707.227 262.5 716.406 264.648L747.461 271.289C761.59 273.533 774.832 279.613 785.742 288.867C794.141 297.07 798.438 307.617 798.633 320.508C798.633 331.445 795.117 341.992 788.477 350.781C781.374 359.953 771.927 367.038 761.133 371.289C748.335 376.348 734.657 378.805 720.899 378.516C702.004 379.442 683.273 374.606 667.188 364.648C660.592 360.229 655.007 354.463 650.799 347.731C646.591 340.998 643.856 333.451 642.774 325.586L684.571 321.289C686.524 329.492 690.43 335.742 696.68 340.039C702.93 344.141 710.938 346.289 720.703 346.289C730.86 346.289 739.063 344.141 745.313 340.039C751.563 335.742 754.688 330.664 754.688 324.414C754.726 321.946 754.201 319.502 753.152 317.268C752.102 315.034 750.557 313.069 748.633 311.523C744.727 308.203 738.477 305.664 730.078 303.711L699.024 297.266C681.641 293.555 668.75 287.5 660.352 278.906C656.183 274.517 652.944 269.331 650.829 263.659C648.715 257.987 647.768 251.946 648.047 245.898C648.047 234.766 650.977 225 657.031 216.797C663.281 208.594 671.875 202.148 683.008 197.656C695.263 192.884 708.336 190.562 721.485 190.82C742.774 190.82 759.571 195.312 771.875 204.492C784.18 213.477 791.797 225.781 794.727 241.211Z" fill="black"/>
</svg>
