<svg width="1770" height="500" viewBox="0 0 1770 500" fill="none" xmlns="http://www.w3.org/2000/svg">
<g clip-path="url(#clip0_259_264)">
<path d="M610.516 281.746C595.437 273.413 587.5 266.667 587.5 257.143C587.5 244.841 598.215 237.302 615.278 237.302C635.119 237.302 652.58 245.635 652.58 245.635L666.469 203.175C666.469 203.175 653.77 193.254 616.072 193.254C563.691 193.254 527.183 223.413 527.183 265.476C527.183 289.286 544.246 307.54 566.865 320.635C585.119 330.953 591.469 338.492 591.469 349.207C591.469 360.714 582.342 369.841 565.278 369.841C539.881 369.841 516.072 356.746 516.072 356.746L501.389 399.207C501.389 399.207 523.611 413.889 560.516 413.889C614.484 413.889 652.976 387.302 652.976 339.683C653.77 313.492 633.929 295.238 610.516 281.746ZM825.595 192.461C799.008 192.461 778.373 205.159 762.103 224.207L761.31 223.81L784.326 103.175H724.405L666.072 409.921H725.992L745.834 305.159C753.77 265.476 774.008 241.27 793.056 241.27C806.548 241.27 811.707 250.397 811.707 263.492C811.707 271.826 810.913 281.746 808.929 290.08L786.31 410.318H846.23L869.643 286.508C872.421 273.413 874.008 257.937 874.008 247.222C874.405 212.699 856.548 192.461 825.595 192.461ZM1010.12 192.461C937.897 192.461 889.881 257.54 889.881 330.159C889.881 376.587 918.453 414.286 972.421 414.286C1043.45 414.286 1091.07 350.794 1091.07 276.587C1091.47 233.334 1066.47 192.461 1010.12 192.461ZM980.754 367.857C960.119 367.857 951.786 350.397 951.786 328.572C951.786 294.048 969.643 238.095 1002.18 238.095C1023.61 238.095 1030.36 256.349 1030.36 274.207C1030.36 311.508 1012.5 367.857 980.754 367.857ZM1245.04 192.461C1204.56 192.461 1181.55 228.175 1181.55 228.175H1180.75L1184.33 196.032H1131.15C1128.37 217.857 1123.61 250.794 1118.85 275.794L1077.18 495.635H1137.1L1153.77 406.746H1154.96C1154.96 406.746 1167.26 414.683 1190.28 414.683C1260.91 414.683 1306.94 342.461 1306.94 269.445C1306.94 228.572 1289.09 192.461 1245.04 192.461ZM1187.9 369.048C1172.42 369.048 1163.29 360.318 1163.29 360.318L1173.21 304.365C1180.36 267.064 1199.8 242.064 1220.44 242.064C1238.69 242.064 1244.25 259.127 1244.25 275C1244.25 313.492 1221.23 369.048 1187.9 369.048ZM1392.66 105.953C1373.61 105.953 1358.14 121.032 1358.14 140.873C1358.14 158.73 1369.25 171.032 1386.31 171.032H1387.1C1405.75 171.032 1422.02 158.334 1422.42 136.111C1422.82 118.651 1410.91 105.953 1392.66 105.953Z" fill="#010202"/>
<path d="M1308.53 409.921H1368.85L1409.72 197.223H1349.01L1308.53 409.921Z" fill="#010202"/>
<path d="M1562.1 196.429H1520.44L1522.42 186.508C1525.99 165.873 1537.9 147.619 1558.14 147.619C1568.85 147.619 1577.18 150.794 1577.18 150.794L1589.09 103.968C1589.09 103.968 1578.77 98.8096 1556.55 98.8096C1535.12 98.8096 1514.09 104.762 1497.82 118.651C1477.18 136.111 1467.66 161.111 1462.9 186.508L1461.31 196.429H1433.53L1424.8 241.667H1452.58L1420.83 409.524H1480.75L1512.5 241.667H1553.77L1562.1 196.429ZM1706.55 197.222C1706.55 197.222 1668.85 291.667 1652.18 343.254H1651.39C1650.2 326.587 1636.71 197.222 1636.71 197.222H1573.61L1609.72 392.46C1610.52 396.825 1610.12 399.603 1608.53 402.381C1601.39 415.873 1589.88 428.968 1575.99 438.492C1564.88 446.825 1552.18 451.984 1542.26 455.556L1558.93 506.349C1571.23 503.571 1596.23 493.651 1617.66 473.81C1645.04 448.016 1670.44 408.73 1696.23 354.762L1769.64 197.222H1706.55Z" fill="#010202"/>
<path d="M283.929 493.651L432.341 461.508C432.341 461.508 378.77 99.206 378.373 96.8251C377.976 94.4441 375.992 92.8568 374.008 92.8568C372.024 92.8568 334.325 90.079 334.325 90.079C334.325 90.079 308.135 63.8886 304.96 61.1108C304.167 60.3171 303.373 59.9203 302.579 59.5235L283.929 493.651ZM296.23 58.7299C295.833 58.7299 295.04 59.1267 294.643 59.1267C294.246 59.1267 288.691 60.714 279.96 63.4918C271.23 38.0949 255.754 14.6822 228.373 14.6822C227.579 14.6822 226.786 14.6822 225.992 14.6822C218.056 4.76159 208.532 0.396484 200.198 0.396484C136.31 0.396484 105.754 80.1584 96.2302 120.635C71.627 128.174 53.7699 133.73 51.7858 134.523C37.8969 138.889 37.5001 139.285 35.9128 152.381C34.3255 161.904 -1.78564 441.666 -1.78564 441.666L277.183 494.047L296.23 58.7299ZM223.611 78.1743C223.611 78.9679 223.611 80.1584 223.611 80.952C208.135 85.714 191.071 90.8727 174.405 96.0314C183.929 59.5235 201.786 41.6664 217.262 34.9203C221.23 45.2378 223.611 59.1267 223.611 78.1743ZM198.214 17.46C200.992 17.46 203.77 18.2536 206.548 20.2378C186.31 29.7616 164.087 53.968 154.96 102.381C141.468 106.746 128.373 110.714 116.071 114.285C126.786 77.3807 152.579 17.46 198.214 17.46ZM209.325 232.936C209.325 232.936 192.659 224.206 172.818 224.206C143.056 224.206 141.865 242.857 141.865 247.619C141.865 273.016 208.532 282.936 208.532 342.857C208.532 390.079 178.77 420.238 138.294 420.238C89.881 420.238 65.2779 390.079 65.2779 390.079L78.3731 347.222C78.3731 347.222 103.77 369.047 125.198 369.047C139.087 369.047 145.04 357.936 145.04 350C145.04 316.666 90.2778 315.079 90.2778 260.317C90.2778 214.285 123.214 169.444 190.278 169.444C216.071 169.444 228.77 176.984 228.77 176.984L209.325 232.936ZM234.722 32.1425C249.008 33.7298 258.135 49.9997 264.087 68.2536C256.945 70.6346 249.008 73.0155 240.278 75.7933C240.278 74.206 240.278 72.6188 240.278 70.6346C240.278 55.1584 238.294 42.46 234.722 32.1425Z" fill="#010202"/>
</g>
<defs>
<clipPath id="clip0_259_264">
<rect width="1769.84" height="500" fill="white"/>
</clipPath>
</defs>
</svg>
