<svg width="2605" height="500" viewBox="0 0 2605 500" fill="none" xmlns="http://www.w3.org/2000/svg">
<g clip-path="url(#clip0_259_355)">
<path d="M1229.32 443.721V337.055C1240.06 351.861 1262.42 363.954 1292.89 363.954C1355.1 363.954 1396.72 314.652 1396.72 247.908C1396.72 182.481 1359.59 133.218 1295.14 133.218C1262.03 133.218 1237.38 148.024 1227.54 165.039V138.14H1169.83V443.721H1229.32ZM684.205 297.21C686.879 322.287 709.709 365.311 775.949 365.311C833.701 365.311 861.414 328.566 861.414 292.714C861.414 260.466 839.476 234.032 796.066 225.039L764.748 218.334C752.655 216.086 744.632 209.38 744.632 198.605C744.632 186.047 757.151 176.667 772.81 176.667C797.849 176.667 807.267 193.256 809.05 206.241L858.74 195.039C856.066 171.28 835.019 131.396 772.383 131.396C724.942 131.396 690.019 164.109 690.019 203.528C690.019 234.458 709.244 260 751.763 269.38L780.872 276.086C797.887 279.69 804.593 287.753 804.593 297.597C804.593 309.264 795.174 319.535 775.484 319.535C749.515 319.535 736.531 303.411 735.213 285.931C735.252 286.008 684.205 297.21 684.205 297.21ZM2181.57 297.21C2184.24 322.287 2207.07 365.311 2273.31 365.311C2331.07 365.311 2358.78 328.566 2358.78 292.714C2358.78 260.466 2336.84 234.032 2293.43 225.039L2262.11 218.334C2250.02 216.086 2242 209.38 2242 198.605C2242 186.047 2254.52 176.667 2270.17 176.667C2295.25 176.667 2304.63 193.256 2306.41 206.241L2356.1 195.039C2353.43 171.28 2332.38 131.396 2269.71 131.396C2222.27 131.396 2187.38 164.109 2187.38 203.528C2187.38 234.458 2206.61 260 2249.13 269.38L2278.24 276.086C2295.25 279.69 2301.96 287.753 2301.96 297.597C2301.96 309.264 2292.58 319.535 2272.85 319.535C2246.88 319.535 2233.93 303.411 2232.58 285.931C2232.58 286.008 2181.57 297.21 2181.57 297.21ZM2553.47 280.621C2546.3 300.349 2531.1 314.225 2503.35 314.225C2473.82 314.225 2449.21 293.179 2447.85 264.032H2605.37C2605.37 263.14 2606.26 254.187 2606.26 245.659C2606.26 174.845 2565.52 131.396 2497.5 131.396C2441.1 131.396 2389.2 177.094 2389.2 247.442C2389.2 321.822 2442.46 365.272 2502.89 365.272C2557.03 365.272 2591.96 333.45 2603.12 295.388C2603.12 295.427 2553.47 280.621 2553.47 280.621ZM1430.41 298.528C1430.41 333.024 1459.05 364.845 1506.03 364.845C1538.7 364.845 1559.71 349.613 1570.91 332.132C1570.91 340.659 1571.8 352.752 1573.16 358.566H1627.77C1626.41 350.969 1625.1 335.272 1625.1 323.605V215.156C1625.1 170.814 1599.13 131.357 1529.32 131.357C1470.25 131.357 1438.47 169.458 1434.9 203.954L1487.73 215.156C1489.52 195.892 1503.86 179.303 1529.79 179.303C1554.86 179.303 1566.92 192.287 1566.92 207.985C1566.92 215.582 1562.89 221.861 1550.37 223.683L1496.22 231.745C1459.48 237.171 1430.41 259.109 1430.41 298.528ZM1945.68 298.528C1945.68 333.024 1974.32 364.845 2021.3 364.845C2053.97 364.845 2075.02 349.613 2086.18 332.132C2086.18 340.659 2087.07 352.752 2088.43 358.566H2143.04C2141.69 350.969 2140.37 335.272 2140.37 323.605V215.156C2140.37 170.814 2114.4 131.357 2044.59 131.357C1985.52 131.357 1953.74 169.458 1950.17 203.954L2002.96 215.156C2004.75 195.892 2019.09 179.303 2045.02 179.303C2070.1 179.303 2082.15 192.287 2082.15 207.985C2082.15 215.582 2078.12 221.861 2065.6 223.683L2011.45 231.745C1974.75 237.171 1945.68 259.109 1945.68 298.528ZM1051.65 358.605H1108.47C1107 345.349 1106.26 332.055 1106.22 318.721V138.14H1046.69V266.28C1046.69 291.822 1031.45 309.729 1005.06 309.729C977.306 309.729 964.787 290.039 964.787 265.388V138.14H905.252V277.481C905.252 325.427 935.678 364.38 988.934 364.38C1012.19 364.38 1037.69 355.427 1049.79 334.807C1049.86 343.799 1050.76 354.109 1051.65 358.605ZM1742.81 358.605V331.706C1754.44 350.543 1777.73 363.954 1808.16 363.954C1870.83 363.954 1912 314.225 1912 247.442C1912 182.016 1874.86 132.287 1810.41 132.287C1777.73 132.287 1753.58 146.628 1743.74 162.326V34.1865H1685.06V358.605H1742.81ZM1518.55 320.504C1499.32 320.504 1489.9 307.946 1489.9 294.962C1489.9 277.946 1502 269.419 1517.19 267.171L1566.88 259.535V269.38C1566.88 308.411 1543.62 320.504 1518.55 320.504ZM2033.86 320.504C2014.63 320.504 2005.21 307.946 2005.21 294.962C2005.21 277.946 2017.31 269.419 2032.54 267.171L2082.23 259.535V269.38C2082.19 308.411 2058.89 320.504 2033.86 320.504ZM1338.04 248.373C1338.04 287.83 1313.9 310.659 1283.47 310.659C1253.04 310.659 1228.43 287.365 1228.43 248.373C1228.43 209.38 1253.04 186.551 1283.47 186.551C1313.9 186.551 1338.04 209.38 1338.04 248.373ZM1852.46 247.908C1852.46 288.256 1828.31 310.659 1797.85 310.659C1767.85 310.659 1742.81 287.791 1742.81 247.908C1742.81 207.597 1767.85 185.621 1797.85 185.621C1828.27 185.621 1852.46 207.597 1852.46 247.908ZM2449.17 223.256C2450.52 203.101 2467.54 179.807 2498.39 179.807C2532.38 179.807 2546.72 201.318 2547.62 223.256H2449.17Z" fill="#1F1F1F"/>
<path d="M291.376 492.171C278.586 508.295 252.578 499.458 252.307 478.877L247.811 177.598H450.369C487.074 177.598 507.5 219.962 484.71 248.722L291.376 492.171Z" fill="url(#paint0_linear_259_355)"/>
<path d="M291.376 492.171C278.586 508.295 252.578 499.458 252.307 478.877L247.811 177.598H450.369C487.074 177.598 507.5 219.962 484.71 248.722L291.376 492.171Z" fill="url(#paint1_linear_259_355)"/>
<path d="M209.011 7.40351C221.841 -8.72052 247.81 0.116663 248.12 20.6981L250.097 321.977H50.058C13.3525 321.977 -7.11257 279.613 15.7169 250.853L209.011 7.40351Z" fill="#5BB888"/>
</g>
<defs>
<linearGradient id="paint0_linear_259_355" x1="231.456" y1="283.252" x2="411.491" y2="358.757" gradientUnits="userSpaceOnUse">
<stop stop-color="#239361"/>
<stop offset="1" stop-color="#5BB888"/>
</linearGradient>
<linearGradient id="paint1_linear_259_355" x1="240.05" y1="96.7328" x2="322.158" y2="251.298" gradientUnits="userSpaceOnUse">
<stop stop-color="#010202" stop-opacity="0.2"/>
<stop offset="1" stop-color="#010202" stop-opacity="0"/>
</linearGradient>
<clipPath id="clip0_259_355">
<rect width="2604.65" height="500" fill="white"/>
</clipPath>
</defs>
</svg>
