<svg width="4059" height="500" viewBox="0 0 4059 500" fill="none" xmlns="http://www.w3.org/2000/svg">
<path d="M1259.27 210.697H1186.23V351.448C1186.23 388.979 1211 388.371 1259.27 386.041V442.919C1161.51 454.67 1122.62 427.674 1122.62 351.448V210.697H1068.42V149.665H1122.62V70.9074L1186.23 52.1675V149.665H1259.27V210.697ZM1537.73 149.665H1601.34V442.919H1537.73V400.678C1515.34 431.777 1480.55 450.567 1434.61 450.567C1354.54 450.567 1287.98 383.104 1287.98 296.292C1287.98 208.924 1354.54 142.068 1434.61 142.068C1480.55 142.068 1515.34 160.808 1537.73 191.298V149.665ZM1444.64 390.144C1497.67 390.144 1537.73 350.841 1537.73 296.292C1537.73 241.744 1497.67 202.441 1444.64 202.441C1391.61 202.441 1351.6 241.744 1351.6 296.292C1351.6 350.841 1391.61 390.144 1444.64 390.144ZM1707.35 105.703C1684.96 105.703 1666.68 86.9123 1666.68 65.2348C1666.73 59.9167 1667.79 54.6493 1669.82 49.7364C1671.87 44.8241 1674.86 40.3633 1678.63 36.609C1682.41 32.8547 1686.88 29.8805 1691.8 27.8563C1696.72 25.8304 1702.03 24.7668 1707.35 24.7668C1712.67 24.7668 1717.94 25.8304 1722.9 27.8563C1727.81 29.8823 1732.27 32.8705 1736.07 36.6185C1739.82 40.4171 1742.81 44.8742 1744.88 49.7364C1746.91 54.6493 1747.97 59.9167 1747.97 65.2348C1747.97 86.9123 1729.74 105.703 1707.35 105.703ZM1675.54 442.919V149.665H1739.16V442.919H1675.54ZM1812.8 442.919V14.7891H1876.42V442.919H1812.8ZM2289.3 149.665H2356.46L2263.98 442.919H2201.53L2140.29 245.29L2078.45 442.919H2016L1923.52 149.665H1990.68L2047.81 352.005L2109.65 149.665H2170.33L2231.56 352.005L2289.3 149.665ZM2435.37 105.703C2412.98 105.703 2394.75 86.9123 2394.75 65.2348C2394.75 59.9167 2395.81 54.6493 2397.84 49.7364C2399.92 44.8742 2402.9 40.4171 2406.65 36.6185C2410.45 32.8705 2414.91 29.8823 2419.82 27.8563C2424.78 25.8304 2430.05 24.7668 2435.37 24.7668C2446.13 24.7693 2456.46 29.03 2464.09 36.6185C2467.89 40.4171 2470.87 44.8742 2472.9 49.7364C2474.98 54.6493 2476.04 59.9167 2476.04 65.2348C2476.04 86.9123 2457.76 105.703 2435.37 105.703ZM2403.56 442.919V149.665H2467.18V442.919H2403.56ZM2808.85 262.864V442.919H2745.24V269.347C2745.24 224.726 2719.3 201.276 2679.24 201.276C2637.41 201.276 2604.43 225.942 2604.43 285.757V442.919H2540.82V149.665H2604.43V187.196C2623.88 156.706 2655.69 142.068 2695.75 142.068C2761.7 142.068 2808.85 186.639 2808.85 262.864ZM3110.41 32.364H3174.02V442.919H3110.41V400.678C3088.02 431.777 3053.28 450.567 3007.34 450.567C2927.22 450.567 2860.66 383.104 2860.66 296.292C2860.66 208.924 2927.22 142.068 3007.34 142.068C3053.28 142.068 3088.02 160.808 3110.41 191.298V32.364ZM3017.37 390.144C3070.35 390.144 3110.41 350.841 3110.41 296.292C3110.41 241.744 3070.35 202.441 3017.37 202.441C2964.34 202.441 2924.28 241.744 2924.28 296.292C2924.28 350.841 2964.34 390.144 3017.37 390.144ZM3231.76 296.292C3231.76 208.924 3298.32 142.068 3387.25 142.068C3444.99 142.068 3495.03 171.951 3518.58 217.737L3463.83 249.392C3450.87 221.839 3422 204.214 3386.65 204.214C3334.83 204.214 3295.38 243.517 3295.38 296.292C3295.38 349.068 3334.83 388.371 3386.65 388.371C3422 388.371 3450.87 370.188 3465 343.243L3519.8 374.291C3495.03 420.634 3444.99 450.567 3387.25 450.567C3298.32 450.567 3231.76 383.104 3231.76 296.292ZM3783.07 360.211C3783.07 418.861 3731.81 450.567 3668.2 450.567C3609.3 450.567 3566.9 424.129 3548.06 381.939L3602.81 350.233C3612.28 376.671 3635.84 392.473 3668.2 392.473C3696.51 392.473 3718.29 383.104 3718.29 359.653C3718.29 307.435 3559.86 336.76 3559.86 231.766C3559.86 176.661 3607.57 142.068 3667.64 142.068C3715.91 142.068 3755.97 164.354 3776.59 203.049L3723 232.982C3712.42 210.089 3691.8 199.554 3667.64 199.554C3644.65 199.554 3624.64 209.481 3624.64 230.601C3624.64 283.985 3783.07 251.722 3783.07 360.211ZM4054.65 360.211C4054.65 418.861 4003.39 450.567 3939.78 450.567C3880.87 450.567 3838.43 424.129 3819.59 381.939L3874.39 350.233C3883.81 376.671 3907.36 392.473 3939.78 392.473C3968.04 392.473 3989.82 383.104 3989.82 359.653C3989.82 307.435 3831.39 336.76 3831.39 231.766C3831.39 176.661 3879.1 142.068 3939.17 142.068C3987.49 142.068 4027.55 164.354 4048.16 203.049L3994.53 232.982C3983.94 210.089 3963.33 199.554 3939.17 199.554C3916.22 199.554 3896.17 209.481 3896.17 230.601C3896.17 283.985 4054.65 251.722 4054.65 360.211Z" fill="black"/>
<path d="M422.302 0C310.724 0 240.931 55.5612 213.024 166.684C254.91 111.122 303.735 90.2553 359.549 104.133C391.356 112.085 414.097 135.079 439.32 160.555C480.345 201.985 527.853 250 631.581 250C743.159 250 812.902 194.439 840.809 83.3164C798.974 138.878 750.149 159.694 694.334 145.816C662.527 137.915 639.735 114.87 614.563 89.4449C573.538 47.9639 526.03 0 422.302 0ZM213.024 250C101.445 250 31.7026 305.561 3.79541 416.684C45.6309 361.122 94.4559 340.306 150.27 354.184C182.128 362.085 204.869 385.13 230.041 410.555C271.066 452.036 318.575 500 422.302 500C533.931 500 603.674 444.439 631.581 333.316C589.695 388.878 540.87 409.745 485.106 395.867C453.248 387.915 430.507 364.921 405.284 339.445C364.259 298.015 316.751 250 213.024 250Z" fill="#06B6D4"/>
</svg>
