<svg width="2248" height="500" viewBox="0 0 2248 500" fill="none" xmlns="http://www.w3.org/2000/svg">
<g clip-path="url(#clip0_259_307)">
<path d="M828.034 96.1165H743.932V356.626H709.563V96.1165H625.971V65.3398H828.01V96.1165H828.034ZM986.48 148.422L890.582 389.951C873.665 433.034 849.563 454.563 818.786 454.563C810.073 454.563 802.888 453.544 797.257 451.99V422.257C804.442 424.83 811.092 425.85 816.747 425.85C833.665 425.85 845.971 415.583 854.684 395.583L871.092 356.092L790.073 148.398H826.99L883.398 308.398C883.908 310.461 885.461 315.582 887.5 324.296H888.519C889.029 321.214 890.582 316.092 892.621 308.908L951.602 148.398H986.48V148.422ZM1040.85 326.359H1039.83V451.99H1006.5V148.422H1039.83V184.83H1040.85C1057.26 157.136 1081.36 143.301 1112.65 143.301C1139.32 143.301 1160.34 152.524 1175.22 170.995C1190.1 189.466 1197.79 214.587 1197.79 245.874C1197.79 280.752 1189.08 308.447 1172.16 329.466C1155.24 350.485 1132.16 360.752 1102.94 360.752C1076.77 361.772 1055.75 349.976 1040.9 326.383L1040.85 326.359ZM1040.34 242.767V271.99C1040.34 289.417 1045.97 303.786 1057.26 315.582C1068.54 327.379 1082.38 333.519 1099.83 333.519C1119.83 333.519 1135.73 325.825 1147.52 310.437C1158.81 295.049 1164.44 273.519 1164.44 245.825C1164.44 222.743 1159.32 204.296 1148.54 191.456C1137.77 178.131 1123.42 171.966 1104.95 171.966C1085.46 171.966 1070.07 178.641 1058.28 191.966C1045.97 205.291 1040.34 222.233 1040.34 242.743V242.767ZM1401.87 260.704H1255.22C1255.73 283.786 1261.89 301.723 1273.69 314.539C1285.49 327.354 1301.89 333.519 1322.91 333.519C1346.5 333.519 1368.03 325.825 1387.52 310.437V341.723C1369.05 355.049 1344.95 361.723 1315.22 361.723C1285.49 361.723 1262.91 352.5 1245.99 333.519C1229.08 314.539 1220.87 287.888 1220.87 254.029C1220.87 220.17 1230.1 195.049 1248.57 175.049C1267.04 154.539 1289.59 144.272 1316.77 144.272C1343.96 144.272 1364.98 152.985 1379.85 170.947C1394.73 188.374 1402.43 212.985 1402.43 244.272L1401.92 260.68L1401.87 260.704ZM1367.5 232.5C1367.5 213.01 1362.89 198.131 1353.66 187.379C1344.44 176.602 1331.63 171.481 1315.73 171.481C1299.83 171.481 1286.5 177.112 1275.73 188.398C1264.95 199.684 1257.79 214.563 1255.22 232.5H1367.52H1367.5ZM1418.28 346.335V323.252C1439.3 336.578 1460.32 343.252 1481.87 343.252C1503.42 343.252 1521.87 338.641 1533.66 328.883C1545.46 319.126 1551.09 306.311 1551.09 289.393C1551.09 274.515 1546.99 262.718 1539.3 253.495C1531.6 244.782 1514.17 232.476 1488.01 217.087C1458.28 199.66 1439.81 185.291 1432.11 174.005C1424.42 162.209 1420.32 148.883 1420.32 134.005C1420.32 113.495 1428.52 96.068 1444.42 81.699C1460.32 67.3301 1481.84 60.1699 1508.52 60.1699C1525.95 60.1699 1543.4 63.2524 1560.32 68.8835V89.9029C1543.4 82.2088 1524.93 78.1068 1505.44 78.1068C1485.95 78.1068 1470.05 83.2281 1458.25 92.9854C1446.46 103.252 1440.83 115.558 1440.83 130.922C1440.83 146.286 1444.93 157.597 1452.62 166.311C1460.32 175.024 1477.74 187.33 1503.91 202.209C1531.09 217.597 1549.03 231.432 1558.28 243.228C1567.5 255.024 1571.6 268.859 1571.6 284.757C1571.6 307.33 1563.91 325.267 1548.52 339.636C1533.13 354.005 1511.09 360.655 1482.89 360.655C1472.62 360.655 1461.36 359.126 1448.01 356.044C1434.68 352.961 1424.93 350.413 1418.28 346.311V346.335ZM1744.93 347.354C1729.54 356.578 1711.09 361.723 1689.54 361.723C1661.33 361.723 1638.25 351.99 1620.83 332.5C1603.4 313.01 1594.66 287.888 1594.66 256.092C1594.66 224.296 1604.39 196.092 1623.88 175.073C1643.37 154.053 1668.49 143.277 1699.27 143.277C1715.17 143.277 1730.56 146.359 1745.41 153.01V174.029C1730.53 164.806 1714.13 160.194 1696.7 160.194C1672.09 160.194 1652.6 168.908 1637.21 186.359C1621.82 203.811 1614.64 226.869 1614.64 254.563C1614.64 282.257 1621.82 303.277 1635.66 319.684C1649.49 336.092 1667.96 344.296 1690.53 344.296C1711.55 344.296 1729.51 338.665 1744.9 327.888V347.379L1744.93 347.354ZM1869.03 167.864C1862.86 163.252 1855.7 161.189 1846.99 161.189C1830.58 161.189 1816.72 169.903 1805.97 186.82C1794.68 203.738 1789.56 227.84 1789.56 259.126V357.063H1771.09V148.349H1789.56V194.49H1790.58C1795.19 178.592 1802.89 166.286 1813.16 157.573C1823.42 148.859 1835.19 144.248 1849.05 144.248C1856.75 144.248 1863.93 145.267 1869.56 147.84V167.84H1869.05L1869.03 167.864ZM1898.76 96.0679C1894.66 96.0679 1891.07 94.5388 1887.99 91.4563C1884.9 88.3738 1883.37 84.7815 1883.37 80.1699C1883.37 75.5582 1884.9 71.966 1887.99 69.3932C1891.07 66.8204 1894.66 65.2912 1898.76 65.2912C1902.86 65.2912 1906.46 66.8204 1910.05 69.3932C1913.13 71.966 1914.66 75.5582 1914.66 80.1699C1914.66 84.2718 1913.13 88.3738 1910.05 91.4563C1906.46 94.5388 1902.86 96.0679 1898.76 96.0679ZM1889.54 356.578V148.374H1908.01V356.578H1889.54ZM1972.11 319.66H1971.09V452.476H1952.62V148.374H1971.09V191.456H1972.11C1979.81 176.068 1990.05 164.272 2003.91 156.068C2017.74 147.864 2033.13 143.762 2049.54 143.762C2076.21 143.762 2096.72 152.985 2111.58 170.947C2126.46 189.417 2133.62 214.029 2133.62 245.291C2133.62 280.17 2124.9 308.374 2107.99 329.903C2091.07 351.432 2068.5 362.209 2040.8 362.209C2010.02 361.699 1986.97 347.84 1972.09 319.636L1972.11 319.66ZM1971.09 242.233V268.398C1971.09 289.417 1977.77 307.379 1990.58 322.233C2003.91 337.112 2020.85 344.806 2042.38 344.806C2063.91 344.806 2080.85 335.582 2094.17 317.621C2107.5 299.15 2114.17 275.583 2114.17 245.825C2114.17 219.66 2108.01 199.15 2095.7 183.786C2083.4 168.422 2067.5 160.704 2046.99 160.704C2022.89 160.704 2003.91 168.908 1990.58 185.316C1977.26 201.723 1971.09 220.194 1971.09 242.233ZM2246.99 353.519C2237.26 358.131 2228.01 360.194 2219.81 360.194C2189.03 360.194 2173.67 341.723 2173.67 304.806V165.825H2136.24V148.908H2173.67V94.5389L2182.89 91.4563L2192.11 88.3738V148.883H2246.99V165.801H2192.11V303.228C2192.11 317.597 2194.17 327.84 2198.79 334.515C2203.4 341.189 2211.09 344.248 2221.87 344.248C2229.56 344.248 2237.77 341.675 2246.99 336.553V353.471V353.519Z" fill="#007ACC"/>
<path fill-rule="evenodd" clip-rule="evenodd" d="M19.539 1.01953H486.748C497.209 1.01953 505.68 9.39332 505.68 19.7574V481.699C505.68 492.039 497.209 500.437 486.748 500.437H19.539C9.07781 500.437 0.606934 492.063 0.606934 481.699V19.7574C0.606934 9.41759 9.07781 1.01953 19.539 1.01953ZM281.359 266.699V225.728H101.626V266.699H165.801V449.078H216.893V266.699H281.384H281.359ZM301.723 444.248C309.952 448.398 319.709 451.505 330.947 453.592C342.209 455.68 354.054 456.699 366.505 456.699C378.956 456.699 390.194 455.558 401.117 453.277C412.039 450.995 421.626 447.233 429.879 441.99C438.107 436.748 444.636 429.903 449.442 421.432C454.248 412.961 456.651 402.5 456.651 390.049C456.651 381.02 455.267 373.107 452.524 366.286C449.782 359.49 445.825 353.447 440.631 348.131C435.461 342.84 429.248 338.083 422.015 333.884C414.782 329.685 406.626 325.704 397.549 321.966C390.898 319.272 384.927 316.651 379.636 314.102C374.345 311.553 369.855 308.956 366.165 306.311C362.476 303.665 359.612 300.85 357.622 297.888C355.607 294.927 354.612 291.578 354.612 287.84C354.612 284.418 355.51 281.335 357.306 278.568C359.102 275.825 361.626 273.447 364.903 271.481C368.18 269.515 372.185 267.985 376.942 266.893C381.699 265.801 386.966 265.267 392.791 265.267C397.015 265.267 401.481 265.583 406.189 266.189C410.898 266.82 415.607 267.767 420.364 269.078C425.122 270.364 429.733 272.015 434.223 273.981C438.714 275.947 442.864 278.228 446.651 280.825V234.248C438.932 231.335 430.51 229.175 421.384 227.791C412.257 226.384 401.772 225.68 389.927 225.68C378.083 225.68 366.481 226.942 355.704 229.49C344.927 232.039 335.461 235.995 327.257 241.408C319.054 246.82 312.597 253.689 307.84 262.039C303.083 270.388 300.704 280.388 300.704 292.015C300.704 306.869 305.049 319.539 313.787 330.024C322.5 340.51 335.728 349.393 353.471 356.651C360.437 359.466 366.942 362.209 372.961 364.903C378.981 367.597 384.175 370.413 388.568 373.301C392.961 376.214 396.408 379.369 398.956 382.791C401.505 386.214 402.767 390.121 402.767 394.466C402.767 397.694 401.966 400.68 400.389 403.422C398.811 406.165 396.408 408.568 393.18 410.583C389.952 412.597 385.947 414.199 381.141 415.34C376.335 416.481 370.704 417.063 364.272 417.063C353.277 417.063 342.403 415.17 331.626 411.384C320.85 407.597 310.874 401.918 301.675 394.32V444.151L301.723 444.248Z" fill="#007ACC"/>
</g>
<defs>
<clipPath id="clip0_259_307">
<rect width="2247.57" height="500" fill="white"/>
</clipPath>
</defs>
</svg>
