<svg width="1789" height="500" viewBox="0 0 1789 500" fill="none" xmlns="http://www.w3.org/2000/svg">
<g clip-path="url(#clip0_259_283)">
<path d="M896.154 150.72C827.644 150.72 778.365 195.432 778.365 262.499C778.365 329.566 833.894 374.278 902.404 374.278C943.75 374.278 980.289 357.932 1002.88 330.288L955.529 302.884C943.029 316.586 924.039 324.518 902.644 324.518C872.837 324.518 847.596 308.893 838.221 284.134H1012.02C1013.46 276.922 1014.18 269.711 1014.18 262.499C1014.18 195.432 964.904 150.72 896.154 150.72ZM837.5 240.624C845.192 215.865 866.587 200.24 896.154 200.24C925.721 200.24 947.115 215.865 954.808 240.624H837.5ZM823.558 82.451L651.683 380.288L479.808 82.451H544.231L651.683 268.509L759.135 82.451H823.558ZM242.548 51.4414L471.875 448.557H13.2212L242.548 51.4414ZM1263.46 262.499C1263.46 299.759 1287.74 324.518 1325.48 324.518C1350.96 324.518 1370.19 312.98 1380.05 293.989L1427.88 321.393C1408.17 354.326 1371.15 374.038 1325.72 374.038C1257.21 374.038 1207.93 329.326 1207.93 262.259C1207.93 195.191 1257.21 150.48 1325.72 150.48C1371.15 150.48 1408.17 170.191 1427.88 203.124L1380.29 230.528C1370.43 211.538 1351.2 199.999 1325.72 199.999C1287.98 200.48 1263.46 225.24 1263.46 262.499ZM1775.24 82.451V367.788H1719.47V82.451H1775.24ZM1564.42 150.72C1495.91 150.72 1446.63 195.432 1446.63 262.499C1446.63 329.566 1502.16 374.278 1570.67 374.278C1612.02 374.278 1648.56 357.932 1671.15 330.288L1623.8 302.884C1611.3 316.586 1592.31 324.518 1570.91 324.518C1541.11 324.518 1515.87 308.893 1506.49 284.134H1680.29C1681.73 276.922 1682.45 269.711 1682.45 262.499C1682.21 195.432 1632.93 150.72 1564.42 150.72ZM1505.77 240.624C1513.46 215.865 1534.62 200.24 1564.42 200.24C1594.23 200.24 1615.38 215.865 1623.08 240.624H1505.77ZM1189.18 156.97V217.066C1182.69 215.143 1175.96 214.182 1169.23 213.941C1133.17 213.941 1107.21 238.701 1107.21 275.961V367.788H1051.44V156.97H1107.21V213.941C1107.21 182.451 1143.75 156.97 1189.18 156.97Z" fill="black"/>
</g>
<defs>
<clipPath id="clip0_259_283">
<rect width="1788.46" height="500" fill="white"/>
</clipPath>
</defs>
</svg>
