<svg width="2741" height="500" viewBox="0 0 2741 500" fill="none" xmlns="http://www.w3.org/2000/svg">
<path fill-rule="evenodd" clip-rule="evenodd" d="M739.523 24.4668L508.569 475.917H291.66L388.301 288.818H383.95C304.217 392.329 185.248 460.459 15.7441 475.917V291.413C15.7441 291.413 124.179 285.001 187.92 217.978H15.7823V24.4668H209.294V183.627H213.645L292.729 24.4668H439.065V182.635H443.416L525.477 24.4668H739.523Z" fill="#146EF5"/>
<path d="M1998.84 426.107H2061.16V68.3594H1998.84V426.107Z" fill="#1D1D1B"/>
<path fill-rule="evenodd" clip-rule="evenodd" d="M1655.29 422.443C1668.84 428.092 1682.61 430.878 1696.62 430.878C1719.75 430.878 1740.44 425.229 1758.72 413.97C1776.97 402.71 1791.13 387.176 1801.2 367.405C1811.24 347.481 1816.28 324.847 1816.28 299.618C1816.28 274.351 1811.09 251.756 1800.74 231.832C1790.4 211.909 1776.01 196.45 1757.58 185.496C1739.18 174.389 1718.23 168.893 1694.79 169.046C1679.87 169.046 1665.55 171.947 1651.89 177.71C1638.19 183.512 1626.77 191.718 1617.65 202.367C1616.97 203.168 1616.28 204.008 1615.59 204.809V68.5879H1553.03V426.107H1615.13L1615.02 392.71C1616.62 394.695 1618.34 396.603 1620.17 398.473C1630.02 408.664 1641.74 416.641 1655.29 422.443ZM1719.18 364.695C1708.99 370.916 1697.35 374.046 1684.26 374.046C1671.32 374.046 1659.45 370.84 1648.65 364.466C1637.84 357.901 1629.26 349.008 1622.84 337.748C1616.62 326.489 1613.49 313.702 1613.49 299.389C1613.34 285.076 1616.39 272.29 1622.61 261.031C1628.99 249.618 1637.61 240.802 1648.42 234.542C1659.22 228.168 1671.16 225.038 1684.26 225.191C1697.35 225.038 1708.99 228.092 1719.18 234.313C1729.52 240.382 1737.42 249.16 1742.92 260.573C1748.57 271.832 1751.35 284.771 1751.35 299.389C1751.35 314.008 1748.53 326.947 1742.92 338.206C1737.46 349.466 1729.56 358.283 1719.18 364.695Z" fill="#1D1D1B"/>
<path d="M829.828 90.0391H901.05L964.752 322.749L1032.54 90.0391H1091.89L1165.4 318.054L1226.58 90.0391H1291.89L1195.55 426.07H1134.14L1059.41 203.322L990.783 426.07H928.683L829.828 90.0391Z" fill="#1D1D1B"/>
<path fill-rule="evenodd" clip-rule="evenodd" d="M1397.08 432.023C1372.27 432.176 1349.91 426.68 1329.94 415.573C1310.17 404.314 1294.56 388.703 1283.15 368.779C1271.89 348.856 1266.24 326.108 1266.24 300.535C1266.24 275.726 1272.04 253.283 1283.61 233.207C1295.17 213.13 1310.86 197.443 1330.63 186.184C1350.4 174.924 1372.5 169.275 1396.85 169.275C1424.26 169.275 1448.23 175.344 1468.76 187.52C1489.45 199.695 1504.91 216.985 1515.1 239.352C1525.44 261.566 1529.18 287.062 1526.28 315.84H1330.74C1331.28 327.291 1334.14 337.71 1339.33 347.1C1345.13 357.443 1353.19 365.497 1363.53 371.298C1373.87 377.1 1385.44 379.962 1398.23 379.962C1407.96 379.81 1417 378.13 1425.4 374.924C1433.76 371.565 1440.86 367.1 1446.62 361.451C1452.58 355.802 1456.74 349.428 1459.18 342.291H1524.49C1520.52 359.81 1512.62 375.382 1500.74 389.085C1488.87 402.634 1473.95 413.207 1456.01 420.802C1438.03 428.436 1418.38 432.176 1397.08 432.023ZM1339.56 253.054C1335.9 259.428 1333.38 266.26 1331.97 273.588H1461.58C1460.63 264.314 1457.77 255.878 1453 248.245C1447.5 239.275 1440.06 232.329 1430.63 227.481C1421.2 222.443 1410.55 219.962 1398.68 219.962C1386.05 219.962 1374.56 222.863 1364.22 228.627C1353.84 234.39 1345.63 242.558 1339.56 253.054Z" fill="#1D1D1B"/>
<path d="M1862.12 174.504C1862.12 154.122 1866.77 135.993 1876.05 120.153C1885.32 104.16 1898.34 91.7559 1915.1 82.9391C1932 73.9696 1951.7 69.3132 1974.22 69.0078V124.466C1963.72 124.618 1954.75 126.832 1947.27 131.069C1939.98 135.191 1934.33 141.183 1930.36 149.122C1926.74 156.412 1924.75 164.848 1924.48 174.466H1972.84V227.214H1924.45V426.069H1862.12V227.214H1821.93V174.466H1862.12V174.504Z" fill="#1D1D1B"/>
<path fill-rule="evenodd" clip-rule="evenodd" d="M2219.6 431.566C2194.18 431.566 2171.43 425.993 2151.36 414.887C2131.43 403.627 2115.74 388.093 2104.33 368.322C2093.07 348.398 2087.42 325.803 2087.42 300.535C2087.42 275.116 2093.07 252.444 2104.33 232.52C2115.74 212.444 2131.43 196.833 2151.36 185.726C2171.43 174.619 2194.18 169.047 2219.6 169.047C2245.17 169.047 2268 174.619 2288.07 185.726C2308.3 196.833 2324.06 212.368 2335.32 232.291C2346.58 252.215 2352.31 274.963 2352.46 300.535C2352.31 325.803 2346.58 348.398 2335.32 368.322C2324.22 388.093 2308.53 403.627 2288.3 414.887C2268.07 426.032 2245.17 431.566 2219.6 431.566ZM2219.6 374.276C2233 374.276 2244.87 371.222 2255.21 365.154C2265.55 358.932 2273.53 350.23 2279.18 339.123C2284.83 327.864 2287.61 315.001 2287.61 300.535C2287.61 285.917 2284.79 272.978 2279.18 261.719C2273.53 250.459 2265.55 241.795 2255.21 235.688C2244.87 229.467 2233 226.337 2219.6 226.337C2206.36 226.337 2194.56 229.467 2184.22 235.688C2174.03 241.795 2166.09 250.459 2160.48 261.719C2154.83 272.978 2152.12 285.917 2152.27 300.535C2152.27 315.001 2155.1 327.864 2160.71 339.123C2166.51 350.23 2174.41 358.894 2184.45 365.154C2194.64 371.222 2206.36 374.276 2219.6 374.276Z" fill="#1D1D1B"/>
<path d="M2419.83 174.504H2350.44L2425.55 426.069H2486.28L2535.67 265.382L2588.99 426.069H2648.8L2724.14 174.504H2661.36L2618.61 331.107L2571.39 174.504H2510.67L2463.68 334.542L2419.83 174.504Z" fill="#1D1D1B"/>
</svg>
